<?xml version="1.0" encoding="UTF-8" standalone="no"?>
<svg width="470px" height="75px" viewBox="0 0 470 75" version="1.1" xmlns="http://www.w3.org/2000/svg" xmlns:xlink="http://www.w3.org/1999/xlink">
    <!-- Generator: Sketch 39.1 (31720) - http://www.bohemiancoding.com/sketch -->
    <title>Player/Medium-NotReady</title>
    <desc>Created with Sketch.</desc>
    <defs>
        <polygon id="path-1" points="7.68940623 21.5582847 24.0530426 21.5582847 24.0530426 9.7401029 7.68940623 9.7401029"></polygon>
    </defs>
    <g id="Symbols" stroke="none" stroke-width="1" fill="none" fill-rule="evenodd">
        <g id="Player/Medium-NotReady">
            <g id="Icons/PlayerLarge-GreyFill">
                <g id="Group">
                    <path d="M30,60 C46.5685425,60 60,46.5685425 60,30 C60,13.4314575 46.5685425,0 30,0 C13.4314575,0 0,13.4314575 0,30 C0,46.5685425 13.4314575,60 30,60 Z" id="Oval-766-Copy" fill="#E7EAEE"></path>
                    <path d="M15.9520565,42.4081346 C17.6781,40.5883247 21.8067522,38.5615056 25.2568826,37.3635031 L28.986013,40.5232201 C29.5706217,41.0187168 30.4291435,41.0187168 31.0141435,40.5232201 L34.7432739,37.3635031 C38.1934043,38.5615056 42.3220565,40.5883247 44.0481,42.4081346 L15.9520565,42.4081346 Z M34.8778826,34.1203586 C34.3629261,33.9558428 33.7998391,34.0688986 33.3877957,34.4178125 L29.9998826,37.2882624 L26.6119696,34.4178125 C26.2003174,34.0688986 25.6372304,33.9558428 25.1222739,34.1203586 C22.9309696,34.8166269 11.9998826,38.5646244 11.9998826,43.9675262 C11.9998826,44.8287001 12.7007087,45.5269177 13.5651,45.5269177 L46.4346652,45.5269177 C47.2990565,45.5269177 47.9998826,44.8287001 47.9998826,43.9675262 C47.9998826,38.5646244 37.0687957,34.8166269 34.8778826,34.1203586 L34.8778826,34.1203586 Z M29.9998826,15.118783 C34.0835348,15.118783 37.4057087,18.4496433 37.4057087,22.5434359 C37.4057087,26.638398 34.0835348,29.9696482 29.9998826,29.9696482 C25.9166217,29.9696482 22.5944478,26.638398 22.5944478,22.5434359 C22.5944478,18.4496433 25.9166217,15.118783 29.9998826,15.118783 L29.9998826,15.118783 Z M29.9998826,33.0884312 C35.8095783,33.0884312 40.5361435,28.358017 40.5361435,22.5434359 C40.5361435,16.7296345 35.8095783,12 29.9998826,12 C24.1905783,12 19.464013,16.7296345 19.464013,22.5434359 C19.464013,28.358017 24.1905783,33.0884312 29.9998826,33.0884312 L29.9998826,33.0884312 Z" id="Fill-1" fill="#FFFFFF"></path>
                </g>
            </g>
            <text id="Nick-Name" font-family="PingFangTC-Regular, PingFang TC" font-size="16" font-weight="normal" line-spacing="19.2000008" fill="#000000">
                <tspan x="80" y="38">Nick Name</tspan>
            </text>
            <g id="Icons/Room/NotReady-GreyFill" transform="translate(440.000000, 15.000000)">
                <g>
                    <path d="M29.7233726,15.0041727 C29.7233726,17.6901842 29.0601684,20.1673558 27.7337599,22.4356864 C26.4073526,24.7040169 24.6076872,26.5000467 22.3347649,27.8237744 C20.0618426,29.1475032 17.5796564,29.8093665 14.8882076,29.8093665 C12.1967587,29.8093665 9.71457259,29.1475032 7.4416503,27.8237744 C5.16872798,26.5000467 3.36906259,24.7040169 2.04265413,22.4356864 C0.71624682,20.1673558 0.0530425911,17.6901842 0.0530425911,15.0041727 C0.0530425911,12.3181599 0.71624682,9.84098947 2.04265413,7.57265892 C3.36906259,5.30432721 5.16872798,3.50829866 7.4416503,2.18456981 C9.71457259,0.860840964 12.1967587,0.198977692 14.8882076,0.198977692 C17.5796564,0.198977692 20.0618426,0.860840964 22.3347649,2.18456981 C24.6076872,3.50829866 26.4073526,5.30432721 27.7337599,7.57265892 C29.0601684,9.84098947 29.7233726,12.3181599 29.7233726,15.0041727 L29.7233726,15.0041727 L29.7233726,15.0041727 Z" id="Shape" fill="#E7EAEE"></path>
                    <mask id="mask-2" fill="white">
                        <use xlink:href="#path-1"></use>
                    </mask>
                    <g id="path-1"></g>
                    <path d="M13.2433835,21.5582847 C12.9820199,21.5582847 12.720429,21.458512 12.5206562,21.2591938 L7.98951986,16.7346483 C7.58974714,16.3355575 7.58929259,15.6880574 7.9883835,15.2882847 C8.38747441,14.8887393 9.03520168,14.8882847 9.43474714,15.2873756 L13.2433835,19.0903302 L22.3077017,10.0391938 C22.7072471,9.63987563 23.3547472,9.64055745 23.7540653,10.0403302 C24.1531562,10.4401029 24.1527017,11.0876029 23.752929,11.4866938 L13.9661108,21.2591938 C13.7663381,21.458512 13.5047471,21.5582847 13.2433835,21.5582847" id="Fill-1" fill="#FFFFFF" mask="url(#mask-2)"></path>
                </g>
            </g>
            <path d="M3.05536846e-13,74 L470,74" id="Line" stroke="#EBEBEB" stroke-linecap="square"></path>
        </g>
    </g>
</svg>