<?xml version="1.0" encoding="UTF-8" standalone="no"?>
<svg width="50px" height="50px" viewBox="0 0 50 50" version="1.1" xmlns="http://www.w3.org/2000/svg" xmlns:xlink="http://www.w3.org/1999/xlink">
    <!-- Generator: Sketch 3.8.3 (29802) - http://www.bohemiancoding.com/sketch -->
    <title>Icons/Back-Black</title>
    <desc>Created with Sketch.</desc>
    <defs></defs>
    <g id="Symbols" stroke="none" stroke-width="1" fill="none" fill-rule="evenodd">
        <g id="Icons/Back-Black" fill="#000000">
            <path d="M39.3394164,16.2904907 C39.6982519,15.9320436 39.9029125,15.4349554 39.9029125,14.926605 C39.9029125,14.4178664 39.6982519,13.9207782 39.3394164,13.5627194 C38.9805809,13.2042722 38.4831044,13 37.973589,13 C37.4640736,13 36.9665971,13.2042722 36.6073732,13.5627194 C36.248926,13.9246617 36.0442655,14.4178664 36.0442655,14.926605 C36.0442655,15.4349554 36.248926,15.9285484 36.6073732,16.2904907 C36.9665971,16.6485496 37.4640736,16.8532101 37.973589,16.8532101 C38.4831044,16.8532101 38.9805809,16.6485496 39.3394164,16.2904907 M10.5075253,27.5860429 L17.43142,20.6644784 C18.1094793,19.9868074 19.2088986,19.986419 19.8869579,20.662925 C20.5654056,21.3398192 20.5661823,22.4376851 19.8885113,23.1149677 L16.0597673,27.0761392 L36.5048487,27.0765275 L36.5048487,19.955351 C36.5048487,18.9980679 37.2935879,18.221756 38.2524244,18.221756 C39.2116492,18.221756 40,18.9980679 40,19.955351 L40,28.8105109 C40,29.2703174 39.6722325,29.7110949 39.3464067,30.0365323 C39.0205809,30.3615813 38.5064054,30.5441059 38.0458221,30.5441059 L15.9591846,30.5437176 L19.9059871,34.5072191 C20.5836581,35.1845017 20.5739493,36.2823676 19.8955016,36.9588735 C19.5568603,37.2971265 19.1083159,37.4660588 18.6640433,37.4660588 C18.2193824,37.4660588 17.7723914,37.2967381 17.4333617,36.9577085 L10.5086904,30.0365323 C9.83101941,29.359638 9.83024271,28.2629372 10.5075253,27.5860429" id="Fill-1"></path>
        </g>
    </g>
</svg>