<?xml version="1.0" encoding="UTF-8" standalone="no"?>
<svg width="55px" height="55px" viewBox="0 0 55 55" version="1.1" xmlns="http://www.w3.org/2000/svg" xmlns:xlink="http://www.w3.org/1999/xlink">
    <!-- Generator: Sketch 3.8.3 (29802) - http://www.bohemiancoding.com/sketch -->
    <title>Icons/BrushBorder-GreyFill</title>
    <desc>Created with Sketch.</desc>
    <defs>
        <circle id="path-1" cx="27.5" cy="27.5" r="27.5"></circle>
        <mask id="mask-2" maskContentUnits="userSpaceOnUse" maskUnits="objectBoundingBox" x="0" y="0" width="55" height="55" fill="white">
            <use xlink:href="#path-1"></use>
        </mask>
    </defs>
    <g id="Symbols" stroke="none" stroke-width="1" fill="none" fill-rule="evenodd">
        <g id="Icons/BrushBorder-GreyFill">
            <use id="Oval-45" stroke="#DADADA" mask="url(#mask-2)" stroke-width="10" fill="#D8D8D8" xlink:href="#path-1"></use>
            <g id="Icons/Brush-White" transform="translate(3.000000, 3.000000)" fill="#FFFFFF">
                <path d="M31.0975,25.075125 C33.23875,21.716375 39.8675,10.452625 39.8675,10.452625 C40.39625,9.518875 39.22375,8.542625 38.405,9.232625 C38.405,9.232625 28.54625,17.803875 25.63875,20.520125 C23.34125,22.668875 23.33125,23.650125 22.5875,27.190125 L25.1075,29.291375 C28.445,27.918875 29.40625,27.731375 31.0975,25.075125 M10,35.747625 C16.88,36.317625 14.41625,29.007625 20.7825,28.941375 L23.54,31.242625 C24.22625,39.548875 14.06625,41.401375 10,35.747625" id="Fill-1"></path>
            </g>
        </g>
    </g>
</svg>