<?xml version="1.0" encoding="UTF-8" standalone="no"?>
<svg width="55px" height="55px" viewBox="0 0 55 55" version="1.1" xmlns="http://www.w3.org/2000/svg" xmlns:xlink="http://www.w3.org/1999/xlink">
    <!-- Generator: Sketch 3.8.3 (29802) - http://www.bohemiancoding.com/sketch -->
    <title>Icons/BrushBorder-GreenBorder</title>
    <desc>Created with Sketch.</desc>
    <defs>
        <path d="M54.395605,27.6507946 C54.395605,32.5751491 53.1797306,37.1166304 50.7479817,41.2752364 C48.316235,45.4338424 45.0168485,48.7265636 40.8498242,51.1533977 C36.6828,53.5802339 32.1321254,54.7936499 27.1978025,54.7936499 C22.2634796,54.7936499 17.712805,53.5802339 13.5457808,51.1533977 C9.37875654,48.7265636 6.07937,45.4338424 3.64762115,41.2752364 C1.21587442,37.1166304 0,32.5751491 0,27.6507946 C0,22.7264379 1.21587442,18.1849587 3.64762115,14.0263527 C6.07937,9.86774456 9.37875654,6.57502556 13.5457808,4.14818933 C17.712805,1.72135311 22.2634796,0.507937111 27.1978025,0.507937111 C32.1321254,0.507937111 36.6828,1.72135311 40.8498242,4.14818933 C45.0168485,6.57502556 48.316235,9.86774456 50.7479817,14.0263527 C53.1797306,18.1849587 54.395605,22.7264379 54.395605,27.6507946 L54.395605,27.6507946 Z" id="path-1"></path>
        <mask id="mask-2" maskContentUnits="userSpaceOnUse" maskUnits="objectBoundingBox" x="0" y="0" width="54.395605" height="54.2857128" fill="white">
            <use xlink:href="#path-1"></use>
        </mask>
    </defs>
    <g id="Symbols" stroke="none" stroke-width="1" fill="none" fill-rule="evenodd">
        <g id="Icons/BrushBorder-GreenBorder">
            <g id="Icons-/-Ready">
                <path d="M50.7479817,41.2752364 C48.316235,45.4338424 45.0168485,48.7265636 40.8498242,51.1533977 C36.6828,53.5802339 32.1321254,54.7936499 27.1978025,54.7936499 C22.2634796,54.7936499 17.712805,53.5802339 13.5457808,51.1533977 C9.37875654,48.7265636 6.07937,45.4338424 3.64762115,41.2752364 C1.21587442,37.1166304 0,32.5751491 0,27.6507946 C0,22.7264379 1.21587442,18.1849587 3.64762115,14.0263527 C6.07937,9.86774456 9.37875654,6.57502556 13.5457808,4.14818933 C17.712805,1.72135311 22.2634796,0.507937111 27.1978025,0.507937111 C32.1321254,0.507937111 36.6828,1.72135311 40.8498242,4.14818933 C45.0168485,6.57502556 48.316235,9.86774456 50.7479817,14.0263527 C53.1797306,18.1849587 54.395605,22.7264379 54.395605,27.6507946 C54.395605,32.5751491 53.1797306,37.1166304 50.7479817,41.2752364 Z" id="Path" fill="#F9F9F9"></path>
                <use id="Shape" stroke="#36CFBC" mask="url(#mask-2)" stroke-width="4" xlink:href="#path-1"></use>
            </g>
            <g id="Icons/Brush-Green" transform="translate(3.000000, 3.000000)" fill="#36CEBC">
                <path d="M31.0976317,26.0751712 C33.238895,22.7164002 39.8676864,11.4525799 39.8676864,11.4525799 C40.3964397,10.5188241 39.2239324,9.54256802 38.4051773,10.2325723 C38.4051773,10.2325723 28.5463657,18.8038758 25.6388476,21.5201428 C23.3413333,23.6689062 23.3313332,24.6501623 22.5875786,28.1901844 L25.1075943,30.2914475 C28.4451151,28.9189389 29.4063711,28.7314378 31.0976317,26.0751712 M10,36.7477378 C16.8800429,37.3177413 14.4162776,30.0076957 20.7825673,29.9414453 L23.5400845,32.2427097 C24.2263388,40.5490115 14.0662754,42.4015231 10,36.7477378" id="Fill-1"></path>
            </g>
        </g>
    </g>
</svg>