<?xml version="1.0" encoding="UTF-8" standalone="no"?>
<svg width="60px" height="60px" viewBox="0 0 60 60" version="1.1" xmlns="http://www.w3.org/2000/svg" xmlns:xlink="http://www.w3.org/1999/xlink">
    <!-- Generator: Sketch 3.8.3 (29802) - http://www.bohemiancoding.com/sketch -->
    <title>Icons/EaserLarge-Black</title>
    <desc>Created with Sketch.</desc>
    <defs></defs>
    <g id="Symbols" stroke="none" stroke-width="1" fill="none" fill-rule="evenodd">
        <g id="Icons/EaserLarge-Black" fill="#373B3E">
            <path d="M31.2096774,34.8387097 L9.51612903,34.8387097 C6.84758065,34.8387097 5,36.6056452 5,39.2741935 L5,50.483871 C5,53.1524194 6.84758065,55 9.51612903,55 L31.2096774,55 C33.8782258,55 35.6451613,53.1524194 35.6451613,50.483871 L35.6451613,39.2741935 C35.6451613,36.6056452 33.8782258,34.8387097 31.2096774,34.8387097 M31.2096774,38.0645161 C32.0967742,38.0645161 32.4193548,38.3870968 32.4193548,39.2741935 L32.4193548,50.483871 C32.4193548,51.3709677 32.0967742,51.7741935 31.2096774,51.7741935 L9.51612903,51.7741935 C8.62903226,51.7741935 8.22580645,51.3709677 8.22580645,50.483871 L8.22580645,39.2741935 C8.22580645,38.3870968 8.62903226,38.0645161 9.51612903,38.0645161 L30.8064516,38.0645161" id="Fill-1"></path>
            <path d="M31.8783065,36.3712903 C31.3887903,37.1164516 31.5944355,38.1164516 32.3387903,38.6051613 C32.6121774,38.785 32.9202419,38.8712903 33.2242742,38.8712903 C33.7484677,38.8712903 34.2629839,38.6156452 34.5734677,38.1446774 L54.7347581,7.49951613 C55.0605645,7.00354839 55.0879839,6.36967742 54.8073387,5.84709677 C54.5250806,5.32612903 53.9799194,5.00032258 53.3871774,5.00032258 L30.0000806,5.00032258 C29.4871774,5.00032258 29.0049194,5.24306452 28.7016935,5.65596774 L6.12104839,36.301129 C5.59201613,37.018871 5.74604839,38.0285484 6.46217742,38.5559677 C7.17991935,39.085 8.18879032,38.9317742 8.71782258,38.2148387 C9.03233871,37.1906452 13.8710484,36.4519355 13.8710484,36.4519355" id="Fill-3"></path>
            <path d="M39.6774194,30 L14.6774194,30 C13.7862903,30 13.0645161,29.2774194 13.0645161,28.3870968 C13.0645161,27.4959677 13.7862903,26.7741935 14.6774194,26.7741935 L39.6774194,26.7741935 C40.5677419,26.7741935 41.2903226,27.4959677 41.2903226,28.3870968 C41.2903226,29.2774194 40.5677419,30 39.6774194,30" id="Fill-6"></path>
            <path d="M34.0306452,53.3870968 C33.7233871,53.3870968 33.4120968,53.3 33.1379032,53.116129 C32.3967742,52.6217742 32.1967742,51.6209677 32.6903226,50.8798387 L51.7741935,22.2540323 L51.7741935,6.61290323 C51.7741935,5.72177419 52.4959677,5 53.3870968,5 C54.2774194,5 55,5.72177419 55,6.61290323 L55,22.7419355 C55,23.0604839 54.9056452,23.3717742 54.7290323,23.6362903 L35.3741935,52.6685484 C35.0629032,53.1354839 34.5516129,53.3870968 34.0306452,53.3870968" id="Fill-8"></path>
            <path d="M39.6774194,44.516129 C38.7862903,44.516129 38.0645161,43.7935484 38.0645161,42.9032258 L38.0645161,27.5806452 C38.0645161,26.6895161 38.7862903,25.9677419 39.6774194,25.9677419 C40.5677419,25.9677419 41.2903226,26.6895161 41.2903226,27.5806452 L41.2903226,42.9032258 C41.2903226,43.7935484 40.5677419,44.516129 39.6774194,44.516129" id="Fill-10"></path>
            <polygon id="Fill-12" points="34.0322581 33.2258065 34.0774194 34.0322581 34.8387097 47.7419355 54.1935484 21.9354839 52.5806452 9.03225806"></polygon>
        </g>
    </g>
</svg>