<?xml version="1.0" encoding="UTF-8" standalone="no"?>
<svg width="55px" height="55px" viewBox="0 0 55 55" version="1.1" xmlns="http://www.w3.org/2000/svg" xmlns:xlink="http://www.w3.org/1999/xlink">
    <!-- Generator: Sketch 3.8.3 (29802) - http://www.bohemiancoding.com/sketch -->
    <title>Icons/Room/Editing-GreenFill</title>
    <desc>Created with Sketch.</desc>
    <defs></defs>
    <g id="Symbols" stroke="none" stroke-width="1" fill="none" fill-rule="evenodd">
        <g id="Icons/Room/Editing-GreenFill">
            <path d="M54.395605,27.6507946 C54.395605,32.5751491 53.1797306,37.1166304 50.7479817,41.2752364 C48.316235,45.4338424 45.0168485,48.7265636 40.8498242,51.1533977 C36.6828,53.5802339 32.1321254,54.7936499 27.1978025,54.7936499 C22.2634796,54.7936499 17.712805,53.5802339 13.5457808,51.1533977 C9.37875654,48.7265636 6.07937,45.4338424 3.64762115,41.2752364 C1.21587442,37.1166304 0,32.5751491 0,27.6507946 C0,22.7264379 1.21587442,18.1849587 3.64762115,14.0263527 C6.07937,9.86774456 9.37875654,6.57502556 13.5457808,4.14818933 C17.712805,1.72135311 22.2634796,0.507937111 27.1978025,0.507937111 C32.1321254,0.507937111 36.6828,1.72135311 40.8498242,4.14818933 C45.0168485,6.57502556 48.316235,9.86774456 50.7479817,14.0263527 C53.1797306,18.1849587 54.395605,22.7264379 54.395605,27.6507946 L54.395605,27.6507946 Z" id="Shape" fill="#36CFBC"></path>
            <g id="Icons/Editing-White" transform="translate(3.000000, 3.000000)" fill="#FFFFFF">
                <path d="M39.0389688,27.6014219 C39.6483438,26.9920469 39.9999063,26.1436094 39.9999063,25.2811094 C39.9999063,24.4186094 39.6483438,23.5701719 39.0389688,22.9607969 C38.4295938,22.3514219 37.5811562,21.9998594 36.7186563,21.9998594 C35.8561563,21.9998594 35.0077188,22.3514219 34.3983438,22.9607969 C33.7889688,23.5701719 33.4374063,24.4186094 33.4374063,25.2811094 C33.4374063,26.1436094 33.7889688,26.9920469 34.3983438,27.6014219 C35.0077188,28.2107969 35.8561563,28.5623594 36.7186563,28.5623594 C37.5811562,28.5623594 38.4295938,28.2107969 39.0389688,27.6014219 M27.3202188,27.6014219 C27.9295938,26.9873594 28.2811563,26.1436094 28.2811563,25.2811094 C28.2811563,24.4186094 27.9295938,23.5701719 27.3202188,22.9607969 C26.7108438,22.3514219 25.8624062,21.9998594 24.9999063,21.9998594 C24.1374063,21.9998594 23.2889688,22.3514219 22.6795938,22.9607969 C22.0702188,23.5701719 21.7186563,24.4186094 21.7186563,25.2811094 C21.7186563,26.1436094 22.0702188,26.9920469 22.6795938,27.6014219 C23.2889688,28.2107969 24.1374063,28.5623594 24.9999063,28.5623594 C25.8624062,28.5623594 26.7108438,28.2107969 27.3202188,27.6014219 M13.2811563,28.5623594 C12.4186563,28.5623594 11.5702188,28.2107969 10.9608437,27.6014219 C10.3514688,26.9920469 9.99990625,26.1436094 9.99990625,25.2811094 C9.99990625,24.4186094 10.3514688,23.5701719 10.9608437,22.9607969 C11.5702188,22.3514219 12.4186563,21.9998594 13.2811563,21.9998594 C14.1436563,21.9998594 14.9920937,22.3514219 15.6014688,22.9607969 C16.2108438,23.5701719 16.5624063,24.4186094 16.5624063,25.2811094 C16.5624063,26.1436094 16.2108438,26.9920469 15.6014688,27.6014219 C14.9920937,28.2107969 14.1436563,28.5623594 13.2811563,28.5623594" id="Fill-1"></path>
            </g>
        </g>
    </g>
</svg>