<?xml version="1.0" encoding="UTF-8" standalone="no"?>
<svg width="50px" height="50px" viewBox="0 0 50 50" version="1.1" xmlns="http://www.w3.org/2000/svg" xmlns:xlink="http://www.w3.org/1999/xlink">
    <!-- Generator: Sketch 3.8.3 (29802) - http://www.bohemiancoding.com/sketch -->
    <title>Icons/Email-Grey</title>
    <desc>Created with Sketch.</desc>
    <defs></defs>
    <g id="Symbols" stroke="none" stroke-width="1" fill="none" fill-rule="evenodd">
        <g id="Icons/Email-Grey" fill="#DADADA">
            <path d="M10.1304348,32.8888889 L10.1304348,19.648 L24.0667391,29.9325556 C24.3437826,30.1371111 24.6716957,30.2393889 25,30.2393889 C25.327913,30.2393889 25.6558261,30.1371111 25.9328696,29.9325556 L39.8695652,19.648 L39.8695652,32.8888889 L10.1304348,32.8888889 Z M36.7015652,18.1111111 L25,26.7463889 L13.2984348,18.1111111 L36.7015652,18.1111111 Z M42.9964783,16.5221111 C42.9953043,16.4641667 42.9866957,16.4066111 42.9792609,16.3490556 C42.973,16.3043333 42.9698696,16.2592222 42.960087,16.2156667 C42.9487391,16.1662778 42.9307391,16.1184444 42.9143043,16.0698333 C42.8982609,16.0208333 42.8841739,15.9714444 42.8630435,15.9243889 C42.8450435,15.8843333 42.8207826,15.8462222 42.7988696,15.8069444 C42.7703043,15.756 42.742913,15.7046667 42.7088696,15.6572222 C42.7022174,15.6478889 42.6983043,15.6373889 42.6912609,15.6280556 C42.6701304,15.5996667 42.643913,15.5778889 42.6208261,15.5510556 C42.5844348,15.5090556 42.5488261,15.4666667 42.5081304,15.4281667 C42.4705652,15.3927778 42.4306522,15.3628333 42.3903478,15.3317222 C42.3508261,15.301 42.312087,15.2706667 42.2694348,15.2438333 C42.2252174,15.2162222 42.1794348,15.1932778 42.1332609,15.1703333 C42.0890435,15.1481667 42.0452174,15.126 41.9986522,15.1081111 C41.9497391,15.0894444 41.8996522,15.0758333 41.8487826,15.0618333 C41.8022174,15.049 41.7560435,15.0357778 41.7075217,15.0272222 C41.65,15.0171111 41.5924783,15.0136111 41.5341739,15.0101111 C41.5005217,15.0077778 41.4688261,15 41.4347826,15 L8.56521739,15 C8.53078261,15 8.49830435,15.0077778 8.46426087,15.0101111 C8.40673913,15.014 8.3496087,15.0175 8.29286957,15.0272222 C8.24395652,15.0357778 8.1973913,15.0493889 8.15043478,15.0622222 C8.09995652,15.0762222 8.05026087,15.0894444 8.00173913,15.1081111 C7.95478261,15.126 7.91095652,15.1481667 7.86673913,15.1703333 C7.82017391,15.1936667 7.77478261,15.2162222 7.73056522,15.2438333 C7.68791304,15.2706667 7.64917391,15.301 7.60965217,15.3317222 C7.56934783,15.3628333 7.52943478,15.3927778 7.49186957,15.4281667 C7.45117391,15.4666667 7.41556522,15.5090556 7.37917391,15.5510556 C7.35647826,15.5778889 7.32986957,15.5996667 7.30873913,15.6280556 C7.30169565,15.6373889 7.29778261,15.6478889 7.29113043,15.6572222 C7.25708696,15.7046667 7.22969565,15.7556111 7.20113043,15.8069444 C7.17921739,15.8462222 7.15495652,15.8843333 7.13695652,15.9247778 C7.11582609,15.9714444 7.10213043,16.0208333 7.08569565,16.0698333 C7.06965217,16.1184444 7.05126087,16.1662778 7.03991304,16.2156667 C7.03013043,16.2592222 7.027,16.3043333 7.02073913,16.3490556 C7.01330435,16.4066111 7.00469565,16.4641667 7.00352174,16.5221111 C7.00313043,16.5333889 7,16.5442778 7,16.5555556 L7,34.4444444 C7,35.3035 7.70082609,36 8.56521739,36 L41.4347826,36 C42.2991739,36 43,35.3035 43,34.4444444 L43,16.5555556 C43,16.5442778 42.9968696,16.5333889 42.9964783,16.5221111 L42.9964783,16.5221111 Z" id="Page-1"></path>
        </g>
    </g>
</svg>