<?xml version="1.0" encoding="UTF-8" standalone="no"?>
<svg width="50px" height="50px" viewBox="0 0 50 50" version="1.1" xmlns="http://www.w3.org/2000/svg" xmlns:xlink="http://www.w3.org/1999/xlink">
    <!-- Generator: Sketch 3.8.3 (29802) - http://www.bohemiancoding.com/sketch -->
    <title>Icons/Feedback-Grey</title>
    <desc>Created with Sketch.</desc>
    <defs></defs>
    <g id="Symbols" stroke="none" stroke-width="1" fill="none" fill-rule="evenodd">
        <g id="Icons/Feedback-Grey" fill="#DADADA">
            <path d="M34.7142857,25.4331868 L34.7142857,41.4175824 C34.7142857,42.2914725 33.9392967,43 33.0654066,43 L10.5824176,43 C9.70852747,43 9,42.2914725 9,41.4175824 L9,11.2812308 C9,10.4073407 9.70852747,9.76923077 10.5824176,9.76923077 L27.0292747,9.76923077 C27.9031648,9.76923077 28.6116923,10.4777582 28.6116923,11.3516484 C28.6116923,12.2255385 27.9031648,12.9340659 27.0292747,12.9340659 L12.1648352,12.9340659 L12.1648352,39.8351648 L31.5494505,39.8351648 L31.5494505,25.4331868 C31.5494505,24.5592967 32.257978,23.8507692 33.1318681,23.8507692 C34.0057582,23.8507692 34.7142857,24.5592967 34.7142857,25.4331868 L34.7142857,25.4331868 Z M22.6087912,26.8522198 L20.7083077,27.6062418 L21.4694505,25.6594725 L37.0167033,9.87723077 L38.1896703,11.066022 L22.6087912,26.8522198 Z M40.7017582,10.2324835 L37.8609231,7.35327473 C37.6378022,7.12738462 37.3335824,7 37.0159121,7 L37.0155165,7 C36.6978462,7 36.3936264,7.12778022 36.1705055,7.35367033 L19.6073407,24.1672527 C19.4945934,24.281978 19.405978,24.4180659 19.3474286,24.568 L17.5043077,29.2836044 C17.3318242,29.7235165 17.4374505,30.2235604 17.7721319,30.5570549 C17.9988132,30.7825495 18.3014505,30.9024176 18.6096264,30.9024176 C18.7567912,30.9024176 18.9051429,30.8751209 19.0471648,30.8189451 L23.7160879,28.9667253 C23.8687912,28.9058022 24.0076484,28.814022 24.1231648,28.6973187 L40.7017582,11.8995604 C41.1578901,11.4374945 41.1578901,10.6945495 40.7017582,10.2324835 L40.7017582,10.2324835 Z" id="Fill-1"></path>
        </g>
    </g>
</svg>