<?xml version="1.0" encoding="UTF-8" standalone="no"?>
<svg width="50px" height="50px" viewBox="0 0 50 50" version="1.1" xmlns="http://www.w3.org/2000/svg" xmlns:xlink="http://www.w3.org/1999/xlink">
    <!-- Generator: Sketch 3.8.3 (29802) - http://www.bohemiancoding.com/sketch -->
    <title>Icons/Gallery-Black</title>
    <desc>Created with Sketch.</desc>
    <defs></defs>
    <g id="Symbols" stroke="none" stroke-width="1" fill="none" fill-rule="evenodd">
        <g id="Icons/Gallery-Black" fill="#000000">
            <path d="M30.6889,28.41935 C32.3839,28.41935 33.7624,27.04835 33.7624,25.36385 C33.7624,23.67885 32.3839,22.30835 30.6889,22.30835 C28.9939,22.30835 27.6149,23.67885 27.6149,25.36385 C27.6149,27.04835 28.9939,28.41935 30.6889,28.41935 L30.6889,28.41935 Z M38.9999,40.78335 L38.9999,37.14135 L36.2044,34.48085 L32.4219,37.88285 C31.7574,38.44785 30.8264,38.43685 30.1734,37.85835 L20.5114,29.42735 L10.9999,37.16535 L10.9999,40.78335 L38.9999,40.78335 Z M10.9999,20.28335 L10.9999,32.62185 L19.4509,25.77435 C20.1159,25.22335 21.1689,25.24085 21.8149,25.81385 L31.3289,34.23135 L35.3014,30.84735 C35.9564,30.29035 36.6804,30.29185 37.3344,30.85085 L38.9999,32.53435 L38.9999,20.28335 L10.9999,20.28335 Z M43.4999,42.78335 C43.4999,43.88785 42.6044,44.78335 41.4999,44.78335 L8.9999,44.78335 C7.8954,44.78335 6.9999,43.88785 6.9999,42.78335 L6.9999,18.28335 C6.9999,17.17835 7.8954,16.28335 8.9999,16.28335 L41.4999,16.28335 C42.6044,16.28335 43.4999,17.17835 43.4999,18.28335 L43.4999,42.78335 Z" id="Fill-1"></path>
            <path d="M14.0297,14.283 L36.1407,14.283 C37.5157,14.283 38.6302,13.3875 38.6302,12.283 C38.6302,11.1785 37.5157,10.283 36.1407,10.283 L14.0297,10.283 C12.6547,10.283 11.5397,11.1785 11.5397,12.283 C11.5397,13.3875 12.6547,14.283 14.0297,14.283" id="Fill-4"></path>
            <path d="M18.5165,8.533 L31.9835,8.533 C32.821,8.533 33.5,7.854 33.5,7.0165 C33.5,6.179 32.821,5.5 31.9835,5.5 L18.5165,5.5 C17.679,5.5 17,6.179 17,7.0165 C17,7.854 17.679,8.533 18.5165,8.533" id="Fill-6"></path>
        </g>
    </g>
</svg>