<?xml version="1.0" encoding="UTF-8" standalone="no"?>
<svg width="50px" height="50px" viewBox="0 0 50 50" version="1.1" xmlns="http://www.w3.org/2000/svg" xmlns:xlink="http://www.w3.org/1999/xlink">
    <!-- Generator: Sketch 3.8.3 (29802) - http://www.bohemiancoding.com/sketch -->
    <title>Icons/Guess-Green</title>
    <desc>Created with Sketch.</desc>
    <defs></defs>
    <g id="Symbols" stroke="none" stroke-width="1" fill="none" fill-rule="evenodd">
        <g id="Icons/Guess-Green" fill="#36CEBC">
            <path d="M30.289663,20.1243643 C30.0070109,22.4936464 28.3258043,23.4525321 26.7561522,23.57805 L26.7565109,23.6904857 C26.758663,24.4658679 26.1209022,25.0987607 25.3342826,25.1012357 L25.3306957,25.1012357 C24.5458696,25.1012357 23.9059565,24.471525 23.9038043,23.6979107 L23.9016522,22.9451571 C23.9005761,22.1386607 24.2230435,20.7851893 26.3988913,20.7795321 C27.055663,20.7777643 27.3573261,20.4927857 27.4405435,19.7958964 C27.4706739,19.5448607 27.4943478,18.9102 27.0682174,18.4385357 C26.7138261,18.0471321 26.1083478,17.848425 25.2675652,17.848425 C24.5433587,17.8498393 24.015,18.0276857 23.7395217,18.3618107 C23.5347065,18.6110786 23.5293261,18.8741357 23.5293261,18.9031286 C23.5311196,19.6785107 22.8926413,20.31105 22.1063804,20.313525 C21.3194022,20.313525 20.678413,19.6841679 20.6766196,18.9102 C20.67375,17.8356964 21.4897826,15.0446036 25.2460435,15.0350571 C27.3731087,15.0350571 28.5729457,15.8677179 29.2053261,16.566375 C30.0518478,17.5033393 30.4467717,18.7998857 30.289663,20.1243643 M26.4566413,28.8105536 C26.147087,29.1174536 25.7184457,29.2942393 25.2804783,29.2953 L25.2761739,29.2953 C24.8432283,29.2953 24.4160217,29.1213429 24.1039565,28.8183321 C23.7926087,28.5124929 23.6139783,28.0896214 23.6132609,27.65685 C23.6125435,27.2251393 23.7883043,26.8022679 24.0957065,26.4974893 C24.4088478,26.1902357 24.8374891,26.0138036 25.2722283,26.0127429 C25.710913,26.0127429 26.1402717,26.1870536 26.4505435,26.491125 C26.7604565,26.7951964 26.9387283,27.2170071 26.9394457,27.6487179 C26.940163,28.0818429 26.7644022,28.5054214 26.4566413,28.8105536 M40.5652174,12 L10.4347826,12 C9.64242391,12 9,12.6332464 9,13.4142857 L9,31.4701179 C9,32.2511571 9.64242391,32.8607143 10.4347826,32.8607143 L27.2934783,32.8607143 L27.2934783,38.8714286 C27.2934783,39.4647214 27.7479457,39.994725 28.3128913,40.1990893 C28.4743043,40.2574286 28.6805543,40.2857143 28.845913,40.2857143 C29.2594891,40.2857143 29.6823913,40.0972607 29.9607391,39.7737429 L35.9140109,32.8607143 L40.5652174,32.8607143 C41.3575761,32.8607143 42,32.2511571 42,31.4701179 L42,13.4142857 C42,12.6332464 41.3575761,12 40.5652174,12" id="Fill-1"></path>
        </g>
    </g>
</svg>