<?xml version="1.0" encoding="UTF-8" standalone="no"?>
<svg width="50px" height="50px" viewBox="0 0 50 50" version="1.1" xmlns="http://www.w3.org/2000/svg" xmlns:xlink="http://www.w3.org/1999/xlink">
    <!-- Generator: Sketch 3.8.3 (29802) - http://www.bohemiancoding.com/sketch -->
    <title>Icons/Idea-Grey</title>
    <desc>Created with Sketch.</desc>
    <defs></defs>
    <g id="Symbols" stroke="none" stroke-width="1" fill="none" fill-rule="evenodd">
        <g id="Icons/Idea-Grey" fill="#DADADA">
            <path d="M29.8498174,17.3101347 C29.8498174,17.508547 29.7773197,17.6802503 29.6323255,17.8252444 C29.4873326,17.9702386 29.3156294,18.042735 29.1172157,18.042735 C28.9188034,18.042735 28.7471002,17.9702386 28.602106,17.8252444 C28.4571118,17.6802503 28.3846154,17.508547 28.3846154,17.3101347 C28.3846154,16.6080588 27.9725279,16.06624 27.1483515,15.6846769 C26.3241764,15.3031138 25.5152629,15.1123323 24.7216123,15.1123323 C24.5231986,15.1123323 24.3514954,15.0398345 24.2065012,14.8948417 C24.0615084,14.7498475 23.9890106,14.5781443 23.9890106,14.379732 C23.9890106,14.1813183 24.0615084,14.009615 24.2065012,13.8646209 C24.3514954,13.719628 24.5231986,13.6471303 24.7216123,13.6471303 C25.4847371,13.6471303 26.2440479,13.7692308 26.9995419,14.0134304 C27.7550373,14.2576315 28.4189566,14.669719 28.9912998,15.2496944 C29.5636444,15.8296697 29.8498174,16.5164841 29.8498174,17.3101347 L29.8498174,17.3101347 Z M33.5128205,17.3101347 C33.5128205,16.2112328 33.2495426,15.1886441 32.7229853,14.2423685 C32.196428,13.296093 31.509615,12.5215207 30.6625463,11.9186503 C29.8154762,11.3157812 28.8768315,10.8426434 27.846612,10.4992369 C26.8163925,10.1558304 25.7747255,9.98412718 24.7216123,9.98412718 C23.6684978,9.98412718 22.6268321,10.1558304 21.5966113,10.4992369 C20.5663918,10.8426434 19.627747,11.3157812 18.7806783,11.9186503 C17.9336082,12.5215207 17.2467952,13.296093 16.7202379,14.2423685 C16.1936807,15.1886441 15.9304027,16.2112328 15.9304027,17.3101347 C15.9304027,18.8516485 16.4493279,20.2252745 17.4871795,21.431014 C17.6398044,21.5989005 17.8725579,21.8507323 18.18544,22.186508 C18.4983207,22.5222838 18.7310742,22.7741142 18.8836991,22.9420021 C20.8373019,25.2771679 21.9133087,27.5512821 22.111721,29.7643474 L27.3315022,29.7643474 C27.5299145,27.5512821 28.6059214,25.2771679 30.5595241,22.9420021 C30.7121491,22.7741142 30.9449026,22.5222838 31.2577832,22.186508 C31.5706653,21.8507323 31.8034188,21.5989005 31.9560438,21.431014 C32.9938954,20.2252745 33.5128205,18.8516485 33.5128205,17.3101347 L33.5128205,17.3101347 Z M36.4432232,17.3101347 C36.4432232,19.6758236 35.6572034,21.721001 34.0851651,23.4456656 C33.3983521,24.1935289 32.8298229,24.8574482 32.3795788,25.4374236 C31.9293347,26.017399 31.4752752,26.7461839 31.017399,27.6237785 C30.5595241,28.501373 30.3000615,29.321734 30.2390113,30.0848602 C30.9563487,30.5122106 31.3150181,31.1379733 31.3150181,31.9621484 C31.3150181,32.5268622 31.1242366,33.0152629 30.7426735,33.4273504 C31.1242366,33.8394379 31.3150181,34.3278386 31.3150181,34.8925525 C31.3150181,35.6862031 30.9716116,36.304335 30.2847986,36.746947 C30.4832109,37.0979856 30.5824178,37.456655 30.5824178,37.8229552 C30.5824178,38.5250311 30.3420335,39.0668499 29.8612636,39.448413 C29.380495,39.8299761 28.7890721,40.0207576 28.0869962,40.0207576 C27.7817463,40.6923077 27.3238701,41.2264957 26.7133703,41.6233217 C26.1028691,42.0201463 25.4389497,42.2185586 24.7216123,42.2185586 C24.0042735,42.2185586 23.3403542,42.0201463 22.729853,41.6233217 C22.1193532,41.2264957 21.6614769,40.6923077 21.356227,40.0207576 C20.6541511,40.0207576 20.0627296,39.8299761 19.5819597,39.448413 C19.1011911,39.0668499 18.8608055,38.5250311 18.8608055,37.8229552 C18.8608055,37.456655 18.9600123,37.0979856 19.1584246,36.746947 C18.4716116,36.304335 18.1282051,35.6862031 18.1282051,34.8925525 C18.1282051,34.3278386 18.3189867,33.8394379 18.7005497,33.4273504 C18.3189867,33.0152629 18.1282051,32.5268622 18.1282051,31.9621484 C18.1282051,31.1379733 18.4868745,30.5122106 19.204212,30.0848602 C19.1431631,29.321734 18.8836991,28.501373 18.4258243,27.6237785 C17.967948,26.7461839 17.5138885,26.017399 17.0636444,25.4374236 C16.6134003,24.8574482 16.0448711,24.1935289 15.3580581,23.4456656 C13.7860198,21.721001 13,19.6758236 13,17.3101347 C13,15.7991453 13.3395911,14.3911781 14.0187733,13.0862332 C14.6979542,11.7812882 15.5908116,10.6976492 16.6973443,9.83531761 C17.8038769,8.97298598 19.0554024,8.29380376 20.4519234,7.79777231 C21.8484431,7.30173949 23.2716732,7.05372444 24.7216123,7.05372444 C26.1715501,7.05372444 27.5947802,7.30173949 28.9912998,7.79777231 C30.3878209,8.29380376 31.6393463,8.97298598 32.745879,9.83531761 C33.8524116,10.6976492 34.7452691,11.7812882 35.4244499,13.0862332 C36.1036321,14.3911781 36.4432232,15.7991453 36.4432232,17.3101347 L36.4432232,17.3101347 Z" id="Shape"></path>
        </g>
    </g>
</svg>