<?xml version="1.0" encoding="UTF-8" standalone="no"?>
<svg width="343px" height="275px" viewBox="0 0 343 275" version="1.1" xmlns="http://www.w3.org/2000/svg" xmlns:xlink="http://www.w3.org/1999/xlink">
    <!-- Generator: Sketch 3.8.3 (29802) - http://www.bohemiancoding.com/sketch -->
    <title>Icons/PictureLarge-White</title>
    <desc>Created with Sketch.</desc>
    <defs></defs>
    <g id="Symbols" stroke="none" stroke-width="1" fill="none" fill-rule="evenodd">
        <g id="Icons/PictureLarge-White" fill="#E7EAEE">
            <g id="Icons-/-Picture">
                <path d="M114.285717,80.6190507 C114.285717,90.1428587 110.952384,98.2380907 104.285717,104.904757 C97.6190507,111.571424 89.523808,114.904757 80,114.904757 C70.476192,114.904757 62.3809493,111.571424 55.7142827,104.904757 C49.047616,98.2380907 45.7142827,90.1428587 45.7142827,80.6190507 C45.7142827,71.0952427 49.047616,63 55.7142827,56.3333333 C62.3809493,49.6666667 70.476192,46.3333333 80,46.3333333 C89.523808,46.3333333 97.6190507,49.6666667 104.285717,56.3333333 C110.952384,63 114.285717,71.0952427 114.285717,80.6190507 L114.285717,80.6190507 Z M297.142859,149.190475 L297.142859,229.190475 L45.7142827,229.190475 L45.7142827,194.904757 L102.857141,137.761909 L131.428576,166.333333 L222.857141,74.9047573 L297.142859,149.190475 Z M314.285717,23.476192 L28.571424,23.476192 C27.023808,23.476192 25.6845227,24.041664 24.553568,25.1726187 C23.422624,26.3035733 22.8571413,27.6428587 22.8571413,29.1904747 L22.8571413,246.333333 C22.8571413,247.880949 23.422624,249.220235 24.553568,250.351189 C25.6845227,251.482144 27.023808,252.047616 28.571424,252.047616 L314.285717,252.047616 C315.833333,252.047616 317.172619,251.482144 318.303573,250.351189 C319.434528,249.220235 320,247.880949 320,246.333333 L320,29.1904747 C320,27.6428587 319.434528,26.3035733 318.303573,25.1726187 C317.172619,24.041664 315.833333,23.476192 314.285717,23.476192 L314.285717,23.476192 Z M342.857141,246.333333 C342.857141,254.190475 340.05952,260.916672 334.464288,266.511904 C328.869045,272.107147 322.142859,274.904757 314.285717,274.904757 L28.571424,274.904757 C20.7142827,274.904757 13.988096,272.107147 8.39285333,266.511904 C2.79762133,260.916672 0,254.190475 0,246.333333 L0,29.1904747 C0,21.3333333 2.79762133,14.6071467 8.39285333,9.011904 C13.988096,3.41666133 20.7142827,0.619050667 28.571424,0.619050667 L314.285717,0.619050667 C322.142859,0.619050667 328.869045,3.41666133 334.464288,9.011904 C340.05952,14.6071467 342.857141,21.3333333 342.857141,29.1904747 L342.857141,246.333333 Z" id="Shape"></path>
            </g>
        </g>
    </g>
</svg>