<?xml version="1.0" encoding="UTF-8" standalone="no"?>
<svg width="50px" height="50px" viewBox="0 0 50 50" version="1.1" xmlns="http://www.w3.org/2000/svg" xmlns:xlink="http://www.w3.org/1999/xlink">
    <!-- Generator: Sketch 3.8.3 (29802) - http://www.bohemiancoding.com/sketch -->
    <title>Icons/Player-Grey</title>
    <desc>Created with Sketch.</desc>
    <defs></defs>
    <g id="Symbols" stroke="none" stroke-width="1" fill="none" fill-rule="evenodd">
        <g id="Icons/Player-Grey" fill="#DADADA">
            <path d="M9.39130435,40.3934081 C11.3091304,38.3949411 15.8965217,36.169142 19.73,34.8535273 L23.8734783,38.323445 C24.5230435,38.8675863 25.4769565,38.8675863 26.1269565,38.323445 L30.2704348,34.8535273 C34.103913,36.169142 38.6913043,38.3949411 40.6091304,40.3934081 L9.39130435,40.3934081 Z M30.42,31.2919919 C29.8478261,31.111325 29.2221739,31.23548 28.7643478,31.618648 L25,34.7709001 L21.2356522,31.618648 C20.7782609,31.23548 20.1526087,31.111325 19.5804348,31.2919919 C17.1456522,32.0566154 5,36.172567 5,42.1058906 C5,43.051609 5.77869565,43.8183731 6.73913043,43.8183731 L43.2608696,43.8183731 C44.2213043,43.8183731 45,43.051609 45,42.1058906 C45,36.172567 32.8543478,32.0566154 30.42,31.2919919 L30.42,31.2919919 Z M25,10.4249649 C29.5373913,10.4249649 33.2286957,14.0828275 33.2286957,18.5785221 C33.2286957,23.0755011 29.5373913,26.7337917 25,26.7337917 C20.4630435,26.7337917 16.7717391,23.0755011 16.7717391,18.5785221 C16.7717391,14.0828275 20.4630435,10.4249649 25,10.4249649 L25,10.4249649 Z M25,30.1587567 C31.4552174,30.1587567 36.7069565,24.9639411 36.7069565,18.5785221 C36.7069565,12.1939593 31.4552174,7 25,7 C18.5452174,7 13.2934783,12.1939593 13.2934783,18.5785221 C13.2934783,24.9639411 18.5452174,30.1587567 25,30.1587567 L25,30.1587567 Z" id="Fill-1"></path>
        </g>
    </g>
</svg>