<?xml version="1.0" encoding="UTF-8" standalone="no"?>
<svg width="130px" height="130px" viewBox="0 0 130 130" version="1.1" xmlns="http://www.w3.org/2000/svg" xmlns:xlink="http://www.w3.org/1999/xlink">
    <!-- Generator: Sketch 3.8.3 (29802) - http://www.bohemiancoding.com/sketch -->
    <title>Icons/PlayerLarge-GreyFill</title>
    <desc>Created with Sketch.</desc>
    <defs></defs>
    <g id="Symbols" stroke="none" stroke-width="1" fill="none" fill-rule="evenodd">
        <g id="Icons/PlayerLarge-GreyFill">
            <path d="M65,130 C100.898509,130 130,100.898509 130,65 C130,29.1014913 100.898509,0 65,0 C29.1014913,0 0,29.1014913 0,65 C0,100.898509 29.1014913,130 65,130 Z" id="Oval-766-Copy" fill="#E7EAEE"></path>
            <path d="M34.5627891,91.8842917 C38.30255,87.9413703 47.247963,83.5499288 54.7232457,80.9542567 L62.8030283,87.8003103 C64.0696804,88.8738864 65.9298109,88.8738864 67.1973109,87.8003103 L75.2770935,80.9542567 C82.7523761,83.5499288 91.6977891,87.9413703 95.43755,91.8842917 L34.5627891,91.8842917 Z M75.5687457,73.9274435 C74.4530065,73.5709926 73.2329848,73.8159471 72.3402239,74.5719271 L64.9997457,80.7912353 L57.6592674,74.5719271 C56.7673543,73.8159471 55.5473326,73.5709926 54.4315935,73.9274435 C49.6837674,75.4360249 25.9997457,83.5566862 25.9997457,95.2629734 C25.9997457,97.1288503 27.5182022,98.641655 29.39105,98.641655 L100.608441,98.641655 C102.481289,98.641655 103.999746,97.1288503 103.999746,95.2629734 C103.999746,83.5566862 80.3157239,75.4360249 75.5687457,73.9274435 L75.5687457,73.9274435 Z M64.9997457,32.7573633 C73.8476587,32.7573633 81.0457022,39.9742272 81.0457022,48.8441112 C81.0457022,57.7165291 73.8476587,64.9342377 64.9997457,64.9342377 C56.1526804,64.9342377 48.954637,57.7165291 48.954637,48.8441112 C48.954637,39.9742272 56.1526804,32.7573633 64.9997457,32.7573633 L64.9997457,32.7573633 Z M64.9997457,71.691601 C77.5874196,71.691601 87.8283109,61.4423703 87.8283109,48.8441112 C87.8283109,36.2475414 77.5874196,26 64.9997457,26 C52.4129196,26 42.1720283,36.2475414 42.1720283,48.8441112 C42.1720283,61.4423703 52.4129196,71.691601 64.9997457,71.691601 L64.9997457,71.691601 Z" id="Fill-1" fill="#FFFFFF"></path>
        </g>
    </g>
</svg>