<?xml version="1.0" encoding="UTF-8" standalone="no"?>
<svg width="50px" height="50px" viewBox="0 0 50 50" version="1.1" xmlns="http://www.w3.org/2000/svg" xmlns:xlink="http://www.w3.org/1999/xlink">
    <!-- Generator: Sketch 3.8.3 (29802) - http://www.bohemiancoding.com/sketch -->
    <title>Icons/Player-White</title>
    <desc>Created with Sketch.</desc>
    <defs></defs>
    <g id="Symbols" stroke="none" stroke-width="1" fill="none" fill-rule="evenodd">
        <g id="Icons/Player-White" fill="#FFFFFF">
            <path d="M9.3238898,40.3934081 C11.2123298,38.3949411 15.7294305,36.169142 19.50417,34.8535273 L23.5841594,38.323445 C24.2237716,38.8675863 25.1630683,38.8675863 25.8031086,38.323445 L29.8830981,34.8535273 C33.6578376,36.169142 38.1749382,38.3949411 40.0633782,40.3934081 L9.3238898,40.3934081 Z M30.0303716,31.2919919 C29.4669648,31.111325 28.8508993,31.23548 28.4000883,31.618648 L24.69342,34.7709001 L20.9867516,31.618648 C20.5363688,31.23548 19.9203032,31.111325 19.3568965,31.2919919 C16.959421,32.0566154 4.99987156,36.172567 4.99987156,42.1058906 C4.99987156,43.051609 5.76663559,43.8183731 6.71235403,43.8183731 L42.6744859,43.8183731 C43.6202043,43.8183731 44.3869683,43.051609 44.3869683,42.1058906 C44.3869683,36.172567 32.4274189,32.0566154 30.0303716,31.2919919 L30.0303716,31.2919919 Z M24.69342,10.4249649 C29.1612867,10.4249649 32.7960308,14.0828275 32.7960308,18.5785221 C32.7960308,23.0755011 29.1612867,26.7337917 24.69342,26.7337917 C20.2259813,26.7337917 16.5912373,23.0755011 16.5912373,18.5785221 C16.5912373,14.0828275 20.2259813,10.4249649 24.69342,10.4249649 L24.69342,10.4249649 Z M24.69342,30.1587567 C31.0497268,30.1587567 36.2209957,24.9639411 36.2209957,18.5785221 C36.2209957,12.1939593 31.0497268,7 24.69342,7 C18.3375413,7 13.1662723,12.1939593 13.1662723,18.5785221 C13.1662723,24.9639411 18.3375413,30.1587567 24.69342,30.1587567 L24.69342,30.1587567 Z" id="Fill-1"></path>
        </g>
    </g>
</svg>