<?xml version="1.0" encoding="UTF-8" standalone="no"?>
<svg width="50px" height="50px" viewBox="0 0 50 50" version="1.1" xmlns="http://www.w3.org/2000/svg" xmlns:xlink="http://www.w3.org/1999/xlink">
    <!-- Generator: Sketch 3.8.3 (29802) - http://www.bohemiancoding.com/sketch -->
    <title>Icons/Player-Black</title>
    <desc>Created with Sketch.</desc>
    <defs></defs>
    <g id="Symbols" stroke="none" stroke-width="1" fill="none" fill-rule="evenodd">
        <g id="Icons/Player-Black" fill="#000000">
            <path d="M9.39130435,39.4767263 C11.3091304,37.5331192 15.8965217,35.3684205 19.73,34.0889207 L23.8734783,37.4635857 C24.5230435,37.9927898 25.4769565,37.9927898 26.1269565,37.4635857 L30.2704348,34.0889207 C34.103913,35.3684205 38.6913043,37.5331192 40.6091304,39.4767263 L9.39130435,39.4767263 Z M30.42,30.6251529 C29.8478261,30.4494455 29.2221739,30.5701923 28.7643478,30.9428419 L25,34.0085616 L21.2356522,30.9428419 C20.7782609,30.5701923 20.1526087,30.4494455 19.5804348,30.6251529 C17.1456522,31.3687867 5,35.3717514 5,41.1421995 C5,42.061957 5.77869565,42.8076726 6.73913043,42.8076726 L43.2608696,42.8076726 C44.2213043,42.8076726 45,42.061957 45,41.1421995 C45,35.3717514 32.8543478,31.3687867 30.42,30.6251529 L30.42,30.6251529 Z M25,10.3309463 C29.5373913,10.3309463 33.2286957,13.8883969 33.2286957,18.2606803 C33.2286957,22.6342128 29.5373913,26.1920798 25,26.1920798 C20.4630435,26.1920798 16.7717391,22.6342128 16.7717391,18.2606803 C16.7717391,13.8883969 20.4630435,10.3309463 25,10.3309463 L25,10.3309463 Z M25,29.5230261 C31.4552174,29.5230261 36.7069565,24.4708133 36.7069565,18.2606803 C36.7069565,12.0513801 31.4552174,7 25,7 C18.5452174,7 13.2934783,12.0513801 13.2934783,18.2606803 C13.2934783,24.4708133 18.5452174,29.5230261 25,29.5230261 L25,29.5230261 Z" id="Fill-1"></path>
        </g>
    </g>
</svg>