<?xml version="1.0" encoding="UTF-8" standalone="no"?>
<svg width="55px" height="55px" viewBox="0 0 55 55" version="1.1" xmlns="http://www.w3.org/2000/svg" xmlns:xlink="http://www.w3.org/1999/xlink">
    <!-- Generator: Sketch 3.8.3 (29802) - http://www.bohemiancoding.com/sketch -->
    <title>Icons/Room/Private-GreyFill</title>
    <desc>Created with Sketch.</desc>
    <defs>
        <circle id="path-1" cx="27.5" cy="27.5" r="27.5"></circle>
        <mask id="mask-2" maskContentUnits="userSpaceOnUse" maskUnits="objectBoundingBox" x="0" y="0" width="55" height="55" fill="white">
            <use xlink:href="#path-1"></use>
        </mask>
    </defs>
    <g id="Symbols" stroke="none" stroke-width="1" fill="none" fill-rule="evenodd">
        <g id="Icons/Room/Private-GreyFill">
            <use id="Oval-45" stroke="#DADADA" mask="url(#mask-2)" stroke-width="10" fill="#D8D8D8" xlink:href="#path-1"></use>
            <g id="Icons/Password-White" transform="translate(3.000000, 3.000000)" fill="#FFFFFF">
                <path d="M16.2,39.8 L34.6,39.8 L34.6,23 L16.2,23 L16.2,39.8 Z M19,17.048 C19,12.952 21.644,10.2 25.4,10.2 C29.156,10.2 31.8,12.952 31.8,17.048 L31.8,19.8 L19,19.8 L19,17.048 Z M36.2004,19.8 L35,19.8 L35,17.048 C35,11.132 30.9816,7 25.4,7 C19.8184,7 15.8,11.132 15.8,17.048 L15.8,19.8 L14.6004,19.8 C13.7168,19.8 13,20.5224 13,21.406 L13,41.4 C13,42.2836 13.7168,43 14.6004,43 L36.2004,43 C37.084,43 37.8,42.2836 37.8,41.4 L37.8,21.406 C37.8,20.5224 37.084,19.8 36.2004,19.8 L36.2004,19.8 Z" id="Fill-1"></path>
                <path d="M23.42,33.09648 C22.9,32.57648 22.6,31.85248 22.6,31.11648 C22.6,30.38048 22.9,29.65648 23.42,29.13648 C23.94,28.61648 24.664,28.31648 25.4,28.31648 C26.136,28.31648 26.86,28.61648 27.38,29.13648 C27.9,29.65648 28.2,30.38048 28.2,31.11648 C28.2,31.85248 27.9,32.57648 27.38,33.09648 C26.86,33.61648 26.136,33.91648 25.4,33.91648 C24.664,33.91648 23.94,33.61648 23.42,33.09648 Z" id="Fill-3"></path>
            </g>
        </g>
    </g>
</svg>