<?xml version="1.0" encoding="utf-8"?>
<!-- Generator: Adobe Illustrator 18.0.0, SVG Export Plug-In . SVG Version: 6.00 Build 0)  -->
<!DOCTYPE svg PUBLIC "-//W3C//DTD SVG 1.1//EN" "http://www.w3.org/Graphics/SVG/1.1/DTD/svg11.dtd">
<svg version="1.1" id="圖層_1" xmlns="http://www.w3.org/2000/svg" xmlns:xlink="http://www.w3.org/1999/xlink" x="0px" y="0px"
	 viewBox="0 0 50 50" enable-background="new 0 0 50 50" xml:space="preserve">
<title>Icons/Public-Green</title>
<desc>Created with Sketch.</desc>
<g id="Symbols">
	<g id="Icons_x2F_Public-Green">
		<path id="Fill-1" d="M14.2,38.8h18.4V22H14.2V38.8z M34.2,18.8H17V16c0-4.1,2.6-6.8,6.3-6.8c2.7,0,4.9,1.4,5.8,3.9
			c0.3,0.8,1.2,1.2,2.1,0.9c0.8-0.3,1.3-1.2,0.9-2.1c-1.4-3.7-4.7-6-8.8-6c-5.6,0-9.5,4.1-9.5,10v2.8h-1.2c-0.9,0-1.6,0.7-1.6,1.6
			v20c0,0.9,0.7,1.6,1.6,1.6h21.6c0.9,0,1.6-0.7,1.6-1.6v-20C35.8,19.5,35.1,18.8,34.2,18.8L34.2,18.8z"/>
		<path id="Fill-3" d="M37.3,13.6c0.9,0,1.6-0.7,1.6-1.6V8c0-0.9-0.7-1.6-1.6-1.6c-0.9,0-1.6,0.7-1.6,1.6v4
			C35.7,12.9,36.5,13.6,37.3,13.6"/>
		<path id="Fill-4" d="M42,18.5h4c0.9,0,1.6-0.7,1.6-1.6c0-0.9-0.7-1.6-1.6-1.6h-4c-0.9,0-1.6,0.7-1.6,1.6
			C40.4,17.8,41.1,18.5,42,18.5"/>
	</g>
</g>
</svg>
