<?xml version="1.0" encoding="UTF-8" standalone="no"?>
<svg width="50px" height="50px" viewBox="0 0 50 50" version="1.1" xmlns="http://www.w3.org/2000/svg" xmlns:xlink="http://www.w3.org/1999/xlink">
    <!-- Generator: Sketch 3.8.3 (29802) - http://www.bohemiancoding.com/sketch -->
    <title>Icons/Public-Green</title>
    <desc>Created with Sketch.</desc>
    <defs></defs>
    <g id="Symbols" stroke="none" stroke-width="1" fill="none" fill-rule="evenodd">
        <g id="Icons/Public-Green" fill="#36CFBC">
            <path d="M14.2,38.8 L32.6,38.8 L32.6,22 L14.2,22 L14.2,38.8 Z M34.2004,18.8 L17,18.8 L17,16.048 C17,11.952 19.584,9.2 23.34,9.2 C26.076,9.2 28.2108,10.6184 29.1436,13.0916 C29.4556,13.9184 30.3936,14.3356 31.2204,14.024 C32.0472,13.712 32.4724,12.7892 32.1604,11.9624 C30.752,8.2288 27.418,6 23.3364,6 C17.7548,6 13.8,10.132 13.8,16.048 L13.8,18.8 L12.6004,18.8 C11.7168,18.8 11,19.5224 11,20.406 L11,40.4 C11,41.2836 11.7168,42 12.6004,42 L34.2004,42 C35.084,42 35.8,41.2836 35.8,40.4 L35.8,20.406 C35.8,19.5224 35.084,18.8 34.2004,18.8 L34.2004,18.8 Z" id="Fill-1"></path>
            <path d="M37.33644,13.5956 C38.22004,13.5956 38.93644,12.8792 38.93644,11.9956 L38.93644,7.9772 C38.93644,7.0936 38.22004,6.3772 37.33644,6.3772 C36.45284,6.3772 35.73644,7.0936 35.73644,7.9772 L35.73644,11.9956 C35.73644,12.8792 36.45284,13.5956 37.33644,13.5956" id="Fill-3"></path>
            <path d="M42.00572,18.51648 L46.02452,18.51648 C46.90812,18.51648 47.62452,17.80008 47.62452,16.91648 C47.62452,16.03288 46.90812,15.31648 46.02452,15.31648 L42.00572,15.31648 C41.12212,15.31648 40.40572,16.03288 40.40572,16.91648 C40.40572,17.80008 41.12212,18.51648 42.00572,18.51648" id="Fill-4"></path>
        </g>
    </g>
</svg>