<?xml version="1.0" encoding="UTF-8" standalone="no"?>
<svg width="55px" height="55px" viewBox="0 0 55 55" version="1.1" xmlns="http://www.w3.org/2000/svg" xmlns:xlink="http://www.w3.org/1999/xlink">
    <!-- Generator: Sketch 3.8.3 (29802) - http://www.bohemiancoding.com/sketch -->
    <title>Icons/Room/Ready-PurpleFill</title>
    <desc>Created with Sketch.</desc>
    <defs></defs>
    <g id="Symbols" stroke="none" stroke-width="1" fill="none" fill-rule="evenodd">
        <g id="Icons/Room/Ready-PurpleFill">
            <g id="Icons-/-Ready">
                <path d="M54.395605,27.6507946 C54.395605,32.5751491 53.1797306,37.1166304 50.7479817,41.2752364 C48.316235,45.4338424 45.0168485,48.7265636 40.8498242,51.1533977 C36.6828,53.5802339 32.1321254,54.7936499 27.1978025,54.7936499 C22.2634796,54.7936499 17.712805,53.5802339 13.5457808,51.1533977 C9.37875654,48.7265636 6.07937,45.4338424 3.64762115,41.2752364 C1.21587442,37.1166304 0,32.5751491 0,27.6507946 C0,22.7264379 1.21587442,18.1849587 3.64762115,14.0263527 C6.07937,9.86774456 9.37875654,6.57502556 13.5457808,4.14818933 C17.712805,1.72135311 22.2634796,0.507937111 27.1978025,0.507937111 C32.1321254,0.507937111 36.6828,1.72135311 40.8498242,4.14818933 C45.0168485,6.57502556 48.316235,9.86774456 50.7479817,14.0263527 C53.1797306,18.1849587 54.395605,22.7264379 54.395605,27.6507946 L54.395605,27.6507946 Z" id="Shape" fill="#594EC9"></path>
                <g id="Icons-/-Check-(White)" transform="translate(14.000000, 18.000000)" fill="#FFFFFF">
                    <path d="M10.1822917,21.6666667 C9.703125,21.6666667 9.22354167,21.48375 8.85729167,21.1183333 L0.550208333,12.8233333 C-0.182708333,12.0916667 -0.183541667,10.9045833 0.548125,10.1716667 C1.27979167,9.43916667 2.46729167,9.43833333 3.19979167,10.17 L10.1822917,17.1420833 L26.8002083,0.548333333 C27.5327083,-0.18375 28.7197917,-0.1825 29.451875,0.550416667 C30.1835417,1.28333333 30.1827083,2.47041667 29.4497917,3.20208333 L11.5072917,21.1183333 C11.1410417,21.48375 10.6614583,21.6666667 10.1822917,21.6666667" id="Fill-1"></path>
                </g>
            </g>
        </g>
    </g>
</svg>