<?xml version="1.0" encoding="UTF-8" standalone="no"?>
<svg width="50px" height="50px" viewBox="0 0 50 50" version="1.1" xmlns="http://www.w3.org/2000/svg" xmlns:xlink="http://www.w3.org/1999/xlink">
    <!-- Generator: Sketch 3.8.3 (29802) - http://www.bohemiancoding.com/sketch -->
    <title>Icons/Reload-Black</title>
    <desc>Created with Sketch.</desc>
    <defs></defs>
    <g id="Symbols" stroke="none" stroke-width="1" fill="none" fill-rule="evenodd">
        <g id="Icons/Reload-Black" fill="#000000">
            <path d="M42.5074,23.6241143 L36.5862571,29.6382571 C36.2639714,29.9656857 35.8238286,30.1499714 35.3644,30.1499714 C34.9049714,30.1499714 34.4648286,29.9656857 34.1425429,29.6382571 L28.2214,23.6241143 C27.5571143,22.9495429 27.5656857,21.8644 28.2402571,21.1996857 C28.9148286,20.5354 29.9999714,20.5439714 30.6646857,21.2189714 L33.9745429,24.5802571 C33.5451143,18.3582571 28.4382571,13.4284 22.2179714,13.4284 C15.7174,13.4284 10.4284,18.8116857 10.4284,25.4284 C10.4284,32.0455429 15.7174,37.4284 22.2179714,37.4284 C24.6106857,37.4284 26.9134,36.7041143 28.8762571,35.3331143 C29.6528286,34.7914 30.7216857,34.9812571 31.2634,35.7574 C31.8055429,36.5335429 31.6152571,37.6024 30.8391143,38.1445429 C28.2976857,39.9188286 25.3165429,40.8569714 22.2179714,40.8569714 C13.8269714,40.8569714 6.99982857,33.9359714 6.99982857,25.4284 C6.99982857,16.9212571 13.8269714,9.99982857 22.2179714,9.99982857 C30.1204,9.99982857 36.6329714,16.1391143 37.3649714,23.9601143 L40.0641143,21.2189714 C40.7288286,20.5439714 41.8144,20.5358286 42.4885429,21.1996857 C43.1631143,21.8644 43.1716857,22.9495429 42.5074,23.6241143" id="Fill-1"></path>
        </g>
    </g>
</svg>