<?xml version="1.0" encoding="UTF-8" standalone="no"?>
<svg width="50px" height="50px" viewBox="0 0 50 50" version="1.1" xmlns="http://www.w3.org/2000/svg" xmlns:xlink="http://www.w3.org/1999/xlink">
    <!-- Generator: Sketch 3.8.3 (29802) - http://www.bohemiancoding.com/sketch -->
    <title>Icons/Rules-Black</title>
    <desc>Created with Sketch.</desc>
    <defs></defs>
    <g id="Symbols" stroke="none" stroke-width="1" fill="none" fill-rule="evenodd">
        <g id="Icons/Rules-Black" fill="#000000">
            <path d="M39.8695652,25 C39.8695652,33.199 33.199,39.8695652 25,39.8695652 C16.801,39.8695652 10.1304348,33.199 10.1304348,25 C10.1304348,16.801 16.801,10.1304348 25,10.1304348 C33.199,10.1304348 39.8695652,16.801 39.8695652,25 M43,25 C43,15.0749565 34.9250435,7 25,7 C15.0749565,7 7,15.0749565 7,25 C7,34.9250435 15.0749565,43 25,43 C34.9250435,43 43,34.9250435 43,25 M27.8330435,17.1934783 C28.1969565,16.8295652 28.4043478,16.3247826 28.4043478,15.8121739 C28.4043478,15.2956522 28.1969565,14.7908696 27.8330435,14.4269565 C27.4691304,14.0630435 26.9643478,13.8556522 26.4478261,13.8556522 C25.9352174,13.8556522 25.4304348,14.0630435 25.0665217,14.4269565 C24.6986957,14.7908696 24.4913043,15.2956522 24.4913043,15.8121739 C24.4913043,16.3247826 24.6986957,16.8295652 25.0665217,17.1934783 C25.4304348,17.5573913 25.9313043,17.7686957 26.4478261,17.7686957 C26.9643478,17.7686957 27.4691304,17.5573913 27.8330435,17.1934783 M23.9458261,35.8821739 C23.6390435,35.8821739 23.3353913,35.7788696 23.0873043,35.5796957 C22.6905217,35.2607826 22.5034783,34.7473913 22.602087,34.2476957 L24.5296522,24.4615652 L23.4680435,25.0594783 C22.8083043,25.4308261 21.9732609,25.1972174 21.6026957,24.5382609 C21.2313478,23.8793043 21.4645652,23.0442609 22.1235217,22.672913 L25.7759565,20.6154348 C26.242,20.3528696 26.818,20.3857391 27.2507826,20.6991739 C27.6839565,21.0122174 27.8952609,21.549087 27.7919565,22.0734348 L25.7943478,32.2133043 L27.4323478,31.4995652 C28.1265217,31.1982609 28.933,31.5152174 29.235087,32.2082174 C29.5371739,32.9016087 29.2198261,33.7084783 28.5264348,34.0109565 L24.4928696,35.7683043 C24.3171739,35.8446087 24.130913,35.8821739 23.9458261,35.8821739" id="Page-1"></path>
        </g>
    </g>
</svg>