<?xml version="1.0" encoding="UTF-8" standalone="no"?>
<svg width="50px" height="50px" viewBox="0 0 50 50" version="1.1" xmlns="http://www.w3.org/2000/svg" xmlns:xlink="http://www.w3.org/1999/xlink">
    <!-- Generator: Sketch 3.8.3 (29802) - http://www.bohemiancoding.com/sketch -->
    <title>Icons/Shared-Black</title>
    <desc>Created with Sketch.</desc>
    <defs></defs>
    <g id="Symbols" stroke="none" stroke-width="1" fill="none" fill-rule="evenodd">
        <g id="Icons/Shared-Black" fill="#000000">
            <path d="M26.5340565,27.6218943 C28.3001482,27.6218943 29.4953581,27.74676 29.6675213,27.766152 C30.6252973,27.8725715 31.3498963,28.6823061 31.3498963,29.6462308 L31.3498963,31.9245553 L38.4521011,24.7159309 L31.3498963,17.5077796 L31.3498963,19.7861041 C31.3498963,20.8309076 30.5027966,21.6780073 29.457993,21.6780073 C23.651269,21.6780073 19.1608366,23.2298409 16.1110886,26.2909404 C14.7219586,27.6852731 13.7788448,29.2413635 13.1379626,30.7118453 C17.5465702,28.0920323 23.1116036,27.6218943 26.5340565,27.6218943 M9.89192961,38.4327025 C9.73395569,38.4327025 9.57408986,38.4128375 9.41516999,38.3712156 C8.58415149,38.1550657 8.00286421,37.406345 8.00002636,36.5474209 C7.99860743,36.2432975 8.03408062,29.037038 13.4307346,23.620046 C16.8602823,20.1772551 21.6089594,18.2725815 27.5660898,17.9452822 L27.5660898,12.8920086 C27.5660898,12.1243689 28.030079,11.4324053 28.7404887,11.1415251 C29.4518443,10.850172 30.2667817,11.0171325 30.8055011,11.5643655 L42.4558413,23.3882878 C43.1813862,24.1247112 43.1813862,25.3071507 42.4558413,26.044047 L30.8055011,37.8679694 C30.2667817,38.4147294 29.4518443,38.5821628 28.7404887,38.2908097 C28.030079,37.9999296 27.5660898,37.307966 27.5660898,36.5403263 L27.5660898,31.4288767 C23.8040402,31.3219841 14.7895941,31.6975269 11.5402503,37.4687778 C11.1992348,38.0741868 10.5630823,38.4327025 9.89192961,38.4327025" id="Fill-1"></path>
        </g>
    </g>
</svg>