<?xml version="1.0" encoding="UTF-8" standalone="no"?>
<svg width="21px" height="17px" viewBox="0 0 21 17" version="1.1" xmlns="http://www.w3.org/2000/svg" xmlns:xlink="http://www.w3.org/1999/xlink">
    <!-- Generator: Sketch 40.2 (33826) - http://www.bohemiancoding.com/sketch -->
    <title>Icons / Sign Out</title>
    <desc>Created with Sketch.</desc>
    <defs></defs>
    <g id="Mockup" stroke="none" stroke-width="1" fill="none" fill-rule="evenodd">
        <g id="Desktop---4.-Member-" transform="translate(-1154.000000, -616.000000)" fill="#DADADA">
            <g id="List" transform="translate(1135.000000, 72.000000)">
                <g id="Icons-/-Sign-Out-(Grey)" transform="translate(15.000000, 537.000000)">
                    <path d="M24.7358487,14.772177 L21.1583647,11.1595413 C20.8034239,10.8011766 20.2254752,10.7984375 19.8671105,11.1531501 C19.5089741,11.5080909 19.5060067,12.0862678 19.8609475,12.4444043 L21.9027133,14.5062567 L10.8239942,14.5325064 C10.3197728,14.5338759 9.9118762,14.9433703 9.91301749,15.4475917 C9.91438703,15.9511284 10.3227402,16.3585685 10.8260486,16.3585685 L10.8283311,16.3585685 L21.8933547,16.3325471 L19.8609475,18.385041 C19.5060067,18.7431774 19.5089741,19.3213543 19.8671105,19.6760669 C20.0451516,19.8525102 20.277518,19.9403894 20.5096561,19.9403894 C20.7447616,19.9403894 20.9798671,19.8502276 21.1583647,19.6696757 L24.7358487,16.05704 C25.0880504,15.7011861 25.0880504,15.1280309 24.7358487,14.772177 M17.6954661,18.8025244 L17.6954661,22.9780438 C17.6954661,23.4822652 17.3291124,23.8910748 16.824891,23.8910748 L4.91348759,23.8910748 C4.40926618,23.8910748 4,23.4822652 4,22.9780438 L4,7.91303107 C4,7.40880966 4.40926618,7 4.91348759,7 L16.824891,7 C17.3291124,7 17.6954661,7.40880966 17.6954661,7.91303107 L17.6954661,12.0885504 C17.6954661,12.5927718 17.2866564,13.0015815 16.782435,13.0015815 C16.2782136,13.0015815 15.8694039,12.5927718 15.8694039,12.0885504 L15.8694039,8.82606215 L5.82606215,8.82606215 L5.82606215,22.0650127 L15.8694039,22.0650127 L15.8694039,18.8025244 C15.8694039,18.298303 16.2782136,17.8894933 16.782435,17.8894933 C17.2866564,17.8894933 17.6954661,18.298303 17.6954661,18.8025244" id="Fill-1" transform="translate(14.500000, 15.445537) scale(-1, 1) translate(-14.500000, -15.445537) "></path>
                </g>
            </g>
        </g>
    </g>
</svg>