<?xml version="1.0" encoding="UTF-8" standalone="no"?>
<svg width="25px" height="25px" viewBox="0 0 25 25" version="1.1" xmlns="http://www.w3.org/2000/svg" xmlns:xlink="http://www.w3.org/1999/xlink">
    <!-- Generator: Sketch 3.8.3 (29802) - http://www.bohemiancoding.com/sketch -->
    <title>Icons/Smile-Black</title>
    <desc>Created with Sketch.</desc>
    <defs></defs>
    <g id="Symbols" stroke="none" stroke-width="1" fill="none" fill-rule="evenodd">
        <g id="Icons/Smile-Black" fill="#162038">
            <path d="M18.457031,15.4134107 C18.0555558,16.7263452 17.3068572,17.7842873 16.2109372,18.5872388 C15.1150172,19.3901903 13.8780385,19.7916666 12.5,19.7916666 C11.1219615,19.7916666 9.88498281,19.3901903 8.78906282,18.5872388 C7.69314186,17.7842873 6.94444423,16.7263452 6.54296896,15.4134107 C6.45616312,15.1421432 6.47786409,14.8790141 6.60807284,14.6240226 C6.73828159,14.3690321 6.94444423,14.1981329 7.2265627,14.111328 C7.49783019,14.0245222 7.76095922,14.0462232 8.01595074,14.1764319 C8.2709413,14.3066407 8.44184046,14.5128033 8.52864532,14.7949218 C8.79991282,15.6629772 9.3017574,16.3655594 10.03418,16.9026684 C10.7666017,17.4397784 11.5885417,17.7083324 12.5,17.7083324 C13.4114583,17.7083324 14.2333983,17.4397784 14.96582,16.9026684 C15.6982416,16.3655594 16.2000862,15.6629772 16.4713537,14.7949218 C16.5581595,14.5128033 16.7317702,14.3066407 16.9921877,14.1764319 C17.2526043,14.0462232 17.5184458,14.0245222 17.7897133,14.111328 C18.0609808,14.1981329 18.2617184,14.3690321 18.3919272,14.6240226 C18.5221349,14.8790141 18.5438369,15.1421432 18.457031,15.4134107 L18.457031,15.4134107 Z M10.4166668,8.33333269 C10.4166668,8.90841962 10.2132157,9.39941323 9.80631545,9.80631447 C9.3994142,10.2132157 8.90841962,10.4166659 8.33333366,10.4166659 C7.75824672,10.4166659 7.26725214,10.2132157 6.86035187,9.80631447 C6.45345062,9.39941323 6.24999951,8.90841962 6.24999951,8.33333269 C6.24999951,7.75824575 6.45345062,7.26725214 6.86035187,6.8603509 C7.26725214,6.45345062 7.75824672,6.24999951 8.33333366,6.24999951 C8.90841962,6.24999951 9.3994142,6.45345062 9.80631545,6.8603509 C10.2132157,7.26725214 10.4166668,7.75824575 10.4166668,8.33333269 L10.4166668,8.33333269 Z M18.7499995,8.33333269 C18.7499995,8.90841962 18.5465494,9.39941323 18.1396481,9.80631447 C17.7327469,10.2132157 17.2417533,10.4166659 16.6666663,10.4166659 C16.0915794,10.4166659 15.6005858,10.2132157 15.1936846,9.80631447 C14.7867833,9.39941323 14.5833332,8.90841962 14.5833332,8.33333269 C14.5833332,7.75824575 14.7867833,7.26725214 15.1936846,6.8603509 C15.6005858,6.45345062 16.0915794,6.24999951 16.6666663,6.24999951 C17.2417533,6.24999951 17.7327469,6.45345062 18.1396481,6.8603509 C18.5465494,7.26725214 18.7499995,7.75824575 18.7499995,8.33333269 L18.7499995,8.33333269 Z M22.9166668,12.5 C22.9166668,11.0894096 22.6399734,9.74121059 22.0865884,8.45540296 C21.5332034,7.16959631 20.7926432,6.06282535 19.8649089,5.13509105 C18.9371747,4.20735676 17.8304037,3.46679663 16.5445961,2.91341163 C15.2587884,2.36002567 13.9105904,2.08333317 12.5,2.08333317 C11.0894096,2.08333317 9.74121059,2.36002567 8.45540393,2.91341163 C7.16959631,3.46679663 6.06282535,4.20735676 5.13509105,5.13509105 C4.20735676,6.06282535 3.46679663,7.16959631 2.91341163,8.45540296 C2.36002567,9.74121059 2.08333317,11.0894096 2.08333317,12.5 C2.08333317,13.9105894 2.36002567,15.2587884 2.91341163,16.5445961 C3.46679663,17.8304027 4.20735676,18.9371737 5.13509105,19.864908 C6.06282535,20.7926423 7.16959631,21.5332024 8.45540393,22.0865884 C9.74121059,22.6399734 11.0894096,22.9166659 12.5,22.9166659 C13.9105904,22.9166659 15.2587884,22.6399734 16.5445961,22.0865884 C17.8304037,21.5332024 18.9371747,20.7926423 19.8649089,19.864908 C20.7926432,18.9371737 21.5332034,17.8304027 22.0865884,16.5445961 C22.6399734,15.2587884 22.9166668,13.9105894 22.9166668,12.5 L22.9166668,12.5 Z M25,12.5 C25,14.7677948 24.441189,16.8592665 23.3235671,18.774414 C22.2059461,20.6895614 20.6895614,22.2059461 18.774414,23.3235671 C16.8592665,24.441189 14.7677948,24.999999 12.5,24.999999 C10.2322052,24.999999 8.14073352,24.441189 6.22558604,23.3235671 C4.31043856,22.2059461 2.79405386,20.6895614 1.67643193,18.774414 C0.558810966,16.8592665 0,14.7677948 0,12.5 C0,10.2322042 0.558810966,8.14073352 1.67643193,6.22558604 C2.79405386,4.31043759 4.31043856,2.79405386 6.22558604,1.67643193 C8.14073352,0.558809994 10.2322052,0 12.5,0 C14.7677948,0 16.8592665,0.558809994 18.774414,1.67643193 C20.6895614,2.79405386 22.2059461,4.31043759 23.3235671,6.22558604 C24.441189,8.14073352 25,10.2322042 25,12.5 L25,12.5 Z" id="Shape"></path>
        </g>
    </g>
</svg>