<?xml version="1.0" encoding="UTF-8" standalone="no"?>
<svg width="50px" height="50px" viewBox="0 0 50 50" version="1.1" xmlns="http://www.w3.org/2000/svg" xmlns:xlink="http://www.w3.org/1999/xlink">
    <!-- Generator: Sketch 3.8.3 (29802) - http://www.bohemiancoding.com/sketch -->
    <title>Icons/Talk-Black</title>
    <desc>Created with Sketch.</desc>
    <defs></defs>
    <g id="Symbols" stroke="none" stroke-width="1" fill="none" fill-rule="evenodd">
        <g id="Icons/Talk-Black" fill="#000000">
            <path d="M31.4721739,17.8061261 C31.1826087,17.5165609 31.0143478,17.1135174 31.0143478,16.7026478 C31.0143478,16.2878652 31.1826087,15.8848217 31.4721739,15.5952565 C31.7656522,15.3017783 32.1686957,15.1374304 32.5795652,15.1374304 C32.9943478,15.1374304 33.3973913,15.3017783 33.6869565,15.5952565 C33.9765217,15.8848217 34.1447826,16.2917783 34.1447826,16.7026478 C34.1447826,17.1135174 33.9765217,17.5165609 33.6869565,17.8061261 C33.3934783,18.0996043 32.9904348,18.2678652 32.5795652,18.2678652 C32.1686957,18.2678652 31.7656522,18.0996043 31.4721739,17.8061261 L31.4721739,17.8061261 Z M14.2931304,16.6087348 C14.2931304,15.7443435 14.9939565,15.0435174 15.8583478,15.0435174 L27.1897391,15.0435174 C28.0541304,15.0435174 28.7549565,15.7443435 28.7549565,16.6087348 C28.7549565,17.4731261 28.0541304,18.1739522 27.1897391,18.1739522 L15.8583478,18.1739522 C14.9939565,18.1739522 14.2931304,17.4731261 14.2931304,16.6087348 L14.2931304,16.6087348 Z M39.8695652,27.9565609 L35.6352609,27.9565609 C35.1754783,27.9565609 34.6526957,28.1717783 34.3553043,28.5227783 L30.0869565,33.471213 L30.0869565,29.5479957 C30.0869565,28.6836043 29.5575217,27.9565609 28.6931304,27.9565609 L10.1304348,27.9565609 L10.1304348,11.1304739 L39.8695652,11.1304739 L39.8695652,27.9565609 Z M41.4347826,8.00003913 L8.56521739,8.00003913 C7.70082609,8.00003913 7,8.70086522 7,9.56525652 L7,29.5479957 C7,30.412387 7.70082609,31.0869957 8.56521739,31.0869957 L26.9565217,31.0869957 L26.9565217,37.7391696 C26.9565217,38.3957783 27.4523043,38.9827348 28.0686087,39.2085174 C28.2446957,39.2730826 28.4696957,39.304387 28.650087,39.304387 C29.1012609,39.304387 29.5626087,39.0958217 29.8658696,38.7377783 L36.3607391,31.0869957 L41.4347826,31.0869957 C42.2991739,31.0869957 43,30.412387 43,29.5479957 L43,9.56525652 C43,8.70086522 42.2991739,8.00003913 41.4347826,8.00003913 L41.4347826,8.00003913 Z" id="Fill-1"></path>
        </g>
    </g>
</svg>