<?xml version="1.0" encoding="UTF-8" standalone="no"?>
<svg width="470px" height="470px" viewBox="0 0 470 470" version="1.1" xmlns="http://www.w3.org/2000/svg" xmlns:xlink="http://www.w3.org/1999/xlink" style="background: #FFFFFF;">
    <!-- Generator: Sketch 39.1 (31720) - http://www.bohemiancoding.com/sketch -->
    <title>Vector/Canvas</title>
    <desc>Created with Sketch.</desc>
    <defs>
        <rect id="path-1" x="0" y="0" width="470" height="470"></rect>
        <mask id="mask-2" maskContentUnits="userSpaceOnUse" maskUnits="objectBoundingBox" x="0" y="0" width="470" height="470" fill="white">
            <use xlink:href="#path-1"></use>
        </mask>
    </defs>
    <g id="Symbols" stroke="none" stroke-width="1" fill="none" fill-rule="evenodd">
        <g id="Vector/Canvas">
            <use id="Art-Board" stroke="#DADADA" mask="url(#mask-2)" stroke-width="4" fill="#FFFFFF" xlink:href="#path-1"></use>
            <g id="Icons-/-Picture" transform="translate(114.000000, 138.000000)" fill="#E7EAEE">
                <g id="Shape">
                    <path d="M80.5824197,56.8441826 C80.5824197,63.5593829 78.2320992,69.2672999 73.5314582,73.9679409 C68.8308172,78.6685819 63.1228927,81.0189025 56.4076923,81.0189025 C49.6924919,81.0189025 43.9845674,78.6685819 39.2839264,73.9679409 C34.5832854,69.2672999 32.2329649,63.5593829 32.2329649,56.8441826 C32.2329649,50.1289822 34.5832854,44.4210577 39.2839264,39.7204167 C43.9845674,35.0197756 49.6924919,32.6694551 56.4076923,32.6694551 C63.1228927,32.6694551 68.8308172,35.0197756 73.5314582,39.7204167 C78.2320992,44.4210577 80.5824197,50.1289822 80.5824197,56.8441826 L80.5824197,56.8441826 Z M209.514287,105.19363 L209.514287,161.601322 L32.2329649,161.601322 L32.2329649,137.426595 L72.5241747,97.1353924 L92.6697834,117.280994 L157.135713,52.8150563 L209.514287,105.19363 Z M221.601651,16.5529727 L20.1456012,16.5529727 C19.0543831,16.5529727 18.1100581,16.9516848 17.3126264,17.7491166 C16.5152021,18.5465484 16.1164824,19.4908733 16.1164824,20.5820914 L16.1164824,173.688686 C16.1164824,174.779904 16.5152021,175.724229 17.3126264,176.521661 C18.1100581,177.319092 19.0543831,177.717805 20.1456012,177.717805 L221.601651,177.717805 C222.692869,177.717805 223.637194,177.319092 224.434625,176.521661 C225.232057,175.724229 225.630769,174.779904 225.630769,173.688686 L225.630769,20.5820914 C225.630769,19.4908733 225.232057,18.5465484 224.434625,17.7491166 C223.637194,16.9516848 222.692869,16.5529727 221.601651,16.5529727 L221.601651,16.5529727 Z M241.747252,173.688686 C241.747252,179.228726 239.77466,183.971342 235.829483,187.916518 C231.884299,191.861703 227.141691,193.834287 221.601651,193.834287 L20.1456012,193.834287 C14.605561,193.834287 9.86295269,191.861703 5.91776861,187.916518 C1.97259204,183.971342 0,179.228726 0,173.688686 L0,20.5820914 C0,15.0420513 1.97259204,10.2994429 5.91776861,6.35425885 C9.86295269,2.40907477 14.605561,0.436490244 20.1456012,0.436490244 L221.601651,0.436490244 C227.141691,0.436490244 231.884299,2.40907477 235.829483,6.35425885 C239.77466,10.2994429 241.747252,15.0420513 241.747252,20.5820914 L241.747252,173.688686 Z"></path>
                </g>
            </g>
        </g>
    </g>
</svg>