<?xml version="1.0" encoding="UTF-8" standalone="no"?>
<svg width="50px" height="50px" viewBox="0 0 50 50" version="1.1" xmlns="http://www.w3.org/2000/svg" xmlns:xlink="http://www.w3.org/1999/xlink">
    <!-- Generator: Sketch 39.1 (31720) - http://www.bohemiancoding.com/sketch -->
    <title>Icons/BackLarge-Black</title>
    <desc>Created with Sketch.</desc>
    <defs></defs>
    <g id="Symbols" stroke="none" stroke-width="1" fill="none" fill-rule="evenodd">
        <g id="Icons/BackLarge-Black" fill="#373B3E">
            <g id="Page-1" transform="translate(10.000000, 13.000000)">
                <path d="M25.3775081,10.8171371 C22.4407261,7.86616576 18.2131221,6.23358414 13.3482154,5.95304119 L13.3482154,1.62165256 C13.3482154,0.96367393 12.8775357,0.370560718 12.2690169,0.121234248 C11.6604982,-0.12849763 10.9254919,0.015017118 10.4641365,0.48326439 L0.470807308,10.6184867 C-0.150684527,11.2497084 -0.160008931,12.2632306 0.461482903,12.8944523 L10.4317038,23.0296746 C10.8930592,23.4987327 11.6629306,23.6422475 12.2714494,23.3921102 C12.8795627,23.1427837 13.3482154,22.5496705 13.3482154,21.8916918 L13.3482154,17.5104379 C16.5914866,17.4151668 24.2147954,17.7411156 26.9959004,22.6875095 C27.2882002,23.2064329 27.7961776,23.5137328 28.370642,23.5137328 C28.5060485,23.5137328 28.6244279,23.4967057 28.7602399,23.4610297 C29.4717325,23.2757578 29.9971425,22.6339955 29.9999803,21.897773 C30.0007911,21.6370951 29.9979533,15.4602852 25.3775081,10.8171371" id="Fill-1"></path>
            </g>
        </g>
    </g>
</svg>