<?xml version="1.0" encoding="UTF-8" standalone="no"?>
<svg width="30px" height="30px" viewBox="0 0 30 30" version="1.1" xmlns="http://www.w3.org/2000/svg" xmlns:xlink="http://www.w3.org/1999/xlink">
    <!-- Generator: Sketch 39.1 (31720) - http://www.bohemiancoding.com/sketch -->
    <title>Icons/Back-Black</title>
    <desc>Created with Sketch.</desc>
    <defs></defs>
    <g id="Symbols" stroke="none" stroke-width="1" fill="none" fill-rule="evenodd">
        <g id="Icons/Back-Black" fill="#000000">
            <path d="M24.5596109,9.19366049 C24.7988346,8.9546957 24.935275,8.62330358 24.935275,8.28440336 C24.935275,7.94524424 24.7988346,7.61385212 24.5596109,7.37514623 C24.3203873,7.13618145 23.9887362,7 23.6490593,7 C23.3093824,7 22.9777314,7.13618145 22.7382488,7.37514623 C22.499284,7.61644112 22.3628437,7.94524424 22.3628437,8.28440336 C22.3628437,8.62330358 22.499284,8.9523656 22.7382488,9.19366049 C22.9777314,9.43236637 23.3093824,9.56880672 23.6490593,9.56880672 C23.9887362,9.56880672 24.3203873,9.43236637 24.5596109,9.19366049 M5.33835023,16.7240286 L9.95427999,12.1096522 C10.4063196,11.6578716 11.1392657,11.6576127 11.5913053,12.1086166 C12.0436037,12.5598795 12.0441215,13.2917901 11.5923409,13.7433118 L9.03984486,16.3840928 L22.6698992,16.3843517 L22.6698992,11.6369007 C22.6698992,10.9987119 23.1957253,10.4811707 23.8349496,10.4811707 C24.4744328,10.4811707 25,10.9987119 25,11.6369007 L25,17.5403406 C25,17.8468783 24.7814883,18.1407299 24.5642711,18.3576882 C24.347054,18.5743876 24.0042702,18.6960706 23.6972147,18.6960706 L8.97278974,18.6958117 L11.6039914,21.3381461 C12.055772,21.7896678 12.0492995,22.5215784 11.5970011,22.9725823 C11.3712402,23.1980843 11.0722106,23.3107059 10.7760289,23.3107059 C10.4795883,23.3107059 10.1815943,23.1978254 9.95557449,22.9718056 L5.33912693,18.3576882 C4.88734627,17.9064253 4.88682847,17.1752915 5.33835023,16.7240286" id="Fill-1"></path>
        </g>
    </g>
</svg>