<?xml version="1.0" encoding="UTF-8" standalone="no"?>
<svg width="30px" height="30px" viewBox="0 0 30 30" version="1.1" xmlns="http://www.w3.org/2000/svg" xmlns:xlink="http://www.w3.org/1999/xlink">
    <!-- Generator: Sketch 39.1 (31720) - http://www.bohemiancoding.com/sketch -->
    <title>Icons/BrushBorder-GreenBorder</title>
    <desc>Created with Sketch.</desc>
    <defs>
        <path d="M30,15.5079377 C30,18.2292916 29.3294268,20.7390577 27.9882805,23.0372347 C26.6471354,25.3354118 24.8274737,27.1550735 22.5292967,28.4962187 C20.2311198,29.8373651 17.7213538,30.5079371 15,30.5079371 C12.2786462,30.5079371 9.76888022,29.8373651 7.47070325,28.4962187 C5.17252628,27.1550735 3.35286463,25.3354118 2.01171831,23.0372347 C0.670573159,20.7390577 0,18.2292916 0,15.5079377 C0,12.7865826 0.670573159,10.2768177 2.01171831,7.97864065 C3.35286463,5.68046242 5.17252628,3.86080187 7.47070325,2.5196555 C9.76888022,1.17850913 12.2786462,0.507937111 15,0.507937111 C17.7213538,0.507937111 20.2311198,1.17850913 22.5292967,2.5196555 C24.8274737,3.86080187 26.6471354,5.68046242 27.9882805,7.97864065 C29.3294268,10.2768177 30,12.7865826 30,15.5079377 L30,15.5079377 Z" id="path-1"></path>
        <mask id="mask-2" maskContentUnits="userSpaceOnUse" maskUnits="objectBoundingBox" x="0" y="0" width="30" height="30" fill="white">
            <use xlink:href="#path-1"></use>
        </mask>
    </defs>
    <g id="Symbols" stroke="none" stroke-width="1" fill="none" fill-rule="evenodd">
        <g id="Icons/BrushBorder-GreenBorder">
            <path d="M27.9882805,23.0372347 C26.6471354,25.3354118 24.8274737,27.1550735 22.5292967,28.4962187 C20.2311198,29.8373651 17.7213538,30.5079371 15,30.5079371 C12.2786462,30.5079371 9.76888022,29.8373651 7.47070325,28.4962187 C5.17252628,27.1550735 3.35286463,25.3354118 2.01171831,23.0372347 C0.670573159,20.7390577 0,18.2292916 0,15.5079377 C0,12.7865826 0.670573159,10.2768177 2.01171831,7.97864065 C3.35286463,5.68046242 5.17252628,3.86080187 7.47070325,2.5196555 C9.76888022,1.17850913 12.2786462,0.507937111 15,0.507937111 C17.7213538,0.507937111 20.2311198,1.17850913 22.5292967,2.5196555 C24.8274737,3.86080187 26.6471354,5.68046242 27.9882805,7.97864065 C29.3294268,10.2768177 30,12.7865826 30,15.5079377 C30,18.2292916 29.3294268,20.7390577 27.9882805,23.0372347 Z" id="Path" fill="#F9F9F9"></path>
            <use id="Shape" stroke="#36CFBC" mask="url(#mask-2)" stroke-width="4" xlink:href="#path-1"></use>
            <g id="Icons/Brush-Green" transform="translate(0.000000, 1.000000)" fill="#36CEBC">
                <path d="M18.658579,15.6451027 C19.943337,13.6298401 23.9206118,6.87154796 23.9206118,6.87154796 C24.2378638,6.31129446 23.5343594,5.72554081 23.0431064,6.13954339 C23.0431064,6.13954339 17.1278194,11.2823255 15.3833086,12.9120857 C14.0048,14.2013437 13.9987999,14.7900974 13.5525471,16.9141106 L15.0645566,18.1748685 C17.0670691,17.3513634 17.6438227,17.2388627 18.658579,15.6451027 M6,22.0486427 C10.1280258,22.3906448 8.64976654,18.0046174 12.4695404,17.9648672 L14.1240507,19.3456258 C14.5358033,24.3294069 8.43976522,25.4409138 6,22.0486427" id="Fill-1"></path>
            </g>
        </g>
    </g>
</svg>