<?xml version="1.0" encoding="UTF-8" standalone="no"?>
<svg width="50px" height="50px" viewBox="0 0 50 50" version="1.1" xmlns="http://www.w3.org/2000/svg" xmlns:xlink="http://www.w3.org/1999/xlink">
    <!-- Generator: Sketch 39.1 (31720) - http://www.bohemiancoding.com/sketch -->
    <title>Icons/BrushLarge-BgGrey-EB</title>
    <desc>Created with Sketch.</desc>
    <defs></defs>
    <g id="Symbols" stroke="none" stroke-width="1" fill="none" fill-rule="evenodd">
        <g id="Icons/BrushLarge-BgGrey-EB">
            <g id="Icons-/-Brush">
                <rect id="Combined-Shape" fill="#B7B7B7" x="0" y="0" width="50" height="50"></rect>
                <path d="M0,0 L50,0 L50,50 L0,50 L0,0 Z M31.0975,26.075125 C33.23875,22.716375 39.8675,11.452625 39.8675,11.452625 C40.39625,10.518875 39.22375,9.542625 38.405,10.232625 C38.405,10.232625 28.54625,18.803875 25.63875,21.520125 C23.34125,23.668875 23.33125,24.650125 22.5875,28.190125 L25.1075,30.291375 C28.445,28.918875 29.40625,28.731375 31.0975,26.075125 Z M10,36.747625 C16.88,37.317625 14.41625,30.007625 20.7825,29.941375 L23.54,32.242625 C24.22625,40.548875 14.06625,42.401375 10,36.747625 Z" id="Combined-Shape" fill="#EBEBEB"></path>
                <path d="M31.0975,26.075125 C33.23875,22.716375 39.8675,11.452625 39.8675,11.452625 C40.39625,10.518875 39.22375,9.542625 38.405,10.232625 C38.405,10.232625 28.54625,18.803875 25.63875,21.520125 C23.34125,23.668875 23.33125,24.650125 22.5875,28.190125 L25.1075,30.291375 C28.445,28.918875 29.40625,28.731375 31.0975,26.075125" id="Path" fill="#373B3E"></path>
            </g>
        </g>
    </g>
</svg>