<?xml version="1.0" encoding="UTF-8" standalone="no"?>
<svg width="50px" height="50px" viewBox="0 0 50 50" version="1.1" xmlns="http://www.w3.org/2000/svg" xmlns:xlink="http://www.w3.org/1999/xlink">
    <!-- Generator: Sketch 39.1 (31720) - http://www.bohemiancoding.com/sketch -->
    <title>Icons/EaserLarge-Black</title>
    <desc>Created with Sketch.</desc>
    <defs></defs>
    <g id="Symbols" stroke="none" stroke-width="1" fill="none" fill-rule="evenodd">
        <g id="Icons/EaserLarge-Black" fill="#373B3E">
            <g id="Icons-/-Easer" transform="translate(10.000000, 10.000000)">
                <path d="M15.2185224,17.3257024 L2.62226847,17.3257024 C1.07278876,17.3257024 0,18.3516649 0,19.9011446 L0,26.4099896 C0,27.9594693 1.07278876,29.0322581 2.62226847,29.0322581 L15.2185224,29.0322581 C16.7680021,29.0322581 17.7939646,27.9594693 17.7939646,26.4099896 L17.7939646,19.9011446 C17.7939646,18.3516649 16.7680021,17.3257024 15.2185224,17.3257024 M15.2185224,19.1987513 C15.7336108,19.1987513 15.9209157,19.3860562 15.9209157,19.9011446 L15.9209157,26.4099896 C15.9209157,26.925078 15.7336108,27.1592092 15.2185224,27.1592092 L2.62226847,27.1592092 C2.10718002,27.1592092 1.87304891,26.925078 1.87304891,26.4099896 L1.87304891,19.9011446 C1.87304891,19.3860562 2.10718002,19.1987513 2.62226847,19.1987513 L14.9843913,19.1987513" id="Fill-1"></path>
                <g id="Group-5" transform="translate(0.468262, 0.000000)">
                    <path d="M15.1384964,18.2155879 C14.8542612,18.6482622 14.9736681,19.2289074 15.4058741,19.5126743 C15.564615,19.6170968 15.7434912,19.6672008 15.920026,19.6672008 C16.2243965,19.6672008 16.5231478,19.5187617 16.7034287,19.2452966 L28.4099844,1.45133195 C28.5991623,1.16335068 28.6150832,0.795296566 28.452128,0.491862643 C28.2882362,0.189365245 27.9716909,0.00018730489 27.6275182,0.00018730489 L14.0479136,0.00018730489 C13.7500989,0.00018730489 13.470078,0.141134235 13.2940114,0.380884495 L0.182669095,18.1748491 C-0.124510926,18.5916025 -0.0350728408,19.1778668 0.380744017,19.4841103 C0.797497399,19.7912903 1.38329344,19.7023205 1.69047347,19.2860354 C1.87309573,18.6913424 4.68266909,18.2624142 4.68266909,18.2624142" id="Fill-3"></path>
                </g>
                <path d="M20.1352758,14.516129 L5.61914672,14.516129 C5.10171696,14.516129 4.68262227,14.0965661 4.68262227,13.5796046 C4.68262227,13.0621748 5.10171696,12.6430801 5.61914672,12.6430801 L20.1352758,12.6430801 C20.6522373,12.6430801 21.0718002,13.0621748 21.0718002,13.5796046 C21.0718002,14.0965661 20.6522373,14.516129 20.1352758,14.516129" id="Fill-6"></path>
                <path d="M16.8565036,28.0957336 C16.6780957,28.0957336 16.4973465,28.0451613 16.3381374,27.9383975 C15.9078044,27.6513528 15.7916753,27.0702393 16.0782518,26.6399063 L27.1592092,10.0184703 L27.1592092,0.936524454 C27.1592092,0.419094693 27.5783039,0 28.0957336,0 C28.6126951,0 29.0322581,0.419094693 29.0322581,0.936524454 L29.0322581,10.301769 C29.0322581,10.4867326 28.9774714,10.6674818 28.874922,10.8210718 L17.6366285,27.678512 C17.4558793,27.9496358 17.159001,28.0957336 16.8565036,28.0957336" id="Fill-8"></path>
                <path d="M20.1352758,22.9448491 C19.617846,22.9448491 19.1987513,22.5252862 19.1987513,22.0083247 L19.1987513,13.1113424 C19.1987513,12.5939126 19.617846,12.1748179 20.1352758,12.1748179 C20.6522373,12.1748179 21.0718002,12.5939126 21.0718002,13.1113424 L21.0718002,22.0083247 C21.0718002,22.5252862 20.6522373,22.9448491 20.1352758,22.9448491" id="Fill-10"></path>
                <polygon id="Fill-12" points="16.8574402 16.3891779 16.8836629 16.8574402 17.3257024 24.817898 28.5639958 9.83350676 27.6274714 2.34131113"></polygon>
            </g>
        </g>
    </g>
</svg>