<?xml version="1.0" encoding="UTF-8" standalone="no"?>
<svg width="30px" height="30px" viewBox="0 0 30 30" version="1.1" xmlns="http://www.w3.org/2000/svg" xmlns:xlink="http://www.w3.org/1999/xlink">
    <!-- Generator: Sketch 39.1 (31720) - http://www.bohemiancoding.com/sketch -->
    <title>Icons/Feedback-Grey</title>
    <desc>Created with Sketch.</desc>
    <defs></defs>
    <g id="Symbols" stroke="none" stroke-width="1" fill="none" fill-rule="evenodd">
        <g id="Icons/Feedback-Grey" fill="#DADADA">
            <path d="M22,14.7526923 L22,24.0769231 C22,24.5866923 21.5479231,25 21.0381538,25 L7.92307692,25 C7.41330769,25 7,24.5866923 7,24.0769231 L7,6.49738462 C7,5.98761538 7.41330769,5.61538462 7.92307692,5.61538462 L17.5170769,5.61538462 C18.0268462,5.61538462 18.4401538,6.02869231 18.4401538,6.53846154 C18.4401538,7.04823077 18.0268462,7.46153846 17.5170769,7.46153846 L8.84615385,7.46153846 L8.84615385,23.1538462 L20.1538462,23.1538462 L20.1538462,14.7526923 C20.1538462,14.2429231 20.5671538,13.8296154 21.0769231,13.8296154 C21.5866923,13.8296154 22,14.2429231 22,14.7526923 L22,14.7526923 Z M14.9384615,15.5804615 L13.8298462,16.0203077 L14.2738462,14.8846923 L23.3430769,5.67838462 L24.0273077,6.37184615 L14.9384615,15.5804615 Z M25.4926923,5.88561538 L23.8355385,4.20607692 C23.7053846,4.07430769 23.5279231,4 23.3426154,4 L23.3423846,4 C23.1570769,4 22.9796154,4.07453846 22.8494615,4.20630769 L13.1876154,14.0142308 C13.1218462,14.0811538 13.0701538,14.1605385 13.036,14.248 L11.9608462,16.9987692 C11.8602308,17.2553846 11.9218462,17.5470769 12.1170769,17.7416154 C12.2493077,17.8731538 12.4258462,17.9430769 12.6056154,17.9430769 C12.6914615,17.9430769 12.778,17.9271538 12.8608462,17.8943846 L15.5843846,16.8139231 C15.6734615,16.7783846 15.7544615,16.7248462 15.8218462,16.6567692 L25.4926923,6.85807692 C25.7587692,6.58853846 25.7587692,6.15515385 25.4926923,5.88561538 L25.4926923,5.88561538 Z" id="Fill-1"></path>
        </g>
    </g>
</svg>