<?xml version="1.0" encoding="UTF-8" standalone="no"?>
<svg width="30px" height="31px" viewBox="0 0 30 31" version="1.1" xmlns="http://www.w3.org/2000/svg" xmlns:xlink="http://www.w3.org/1999/xlink">
    <!-- Generator: Sketch 39.1 (31720) - http://www.bohemiancoding.com/sketch -->
    <title>Icons/IdeaBorder-GreenBorder</title>
    <desc>Created with Sketch.</desc>
    <defs>
        <path d="M30,15.5079377 C30,18.2292916 29.3294268,20.7390577 27.9882805,23.0372347 C26.6471354,25.3354118 24.8274737,27.1550735 22.5292967,28.4962187 C20.2311198,29.8373651 17.7213538,30.5079371 15,30.5079371 C12.2786462,30.5079371 9.76888022,29.8373651 7.47070325,28.4962187 C5.17252628,27.1550735 3.35286463,25.3354118 2.01171831,23.0372347 C0.670573159,20.7390577 0,18.2292916 0,15.5079377 C0,12.7865826 0.670573159,10.2768177 2.01171831,7.97864065 C3.35286463,5.68046242 5.17252628,3.86080187 7.47070325,2.5196555 C9.76888022,1.17850913 12.2786462,0.507937111 15,0.507937111 C17.7213538,0.507937111 20.2311198,1.17850913 22.5292967,2.5196555 C24.8274737,3.86080187 26.6471354,5.68046242 27.9882805,7.97864065 C29.3294268,10.2768177 30,12.7865826 30,15.5079377 L30,15.5079377 Z" id="path-1"></path>
        <mask id="mask-2" maskContentUnits="userSpaceOnUse" maskUnits="objectBoundingBox" x="0" y="0" width="30" height="30" fill="white">
            <use xlink:href="#path-1"></use>
        </mask>
    </defs>
    <g id="Symbols" stroke="none" stroke-width="1" fill="none" fill-rule="evenodd">
        <g id="Icons/IdeaBorder-GreenBorder">
            <g id="Icons-/-Ready">
                <path d="M27.9882805,23.0372347 C26.6471354,25.3354118 24.8274737,27.1550735 22.5292967,28.4962187 C20.2311198,29.8373651 17.7213538,30.5079371 15,30.5079371 C12.2786462,30.5079371 9.76888022,29.8373651 7.47070325,28.4962187 C5.17252628,27.1550735 3.35286463,25.3354118 2.01171831,23.0372347 C0.670573159,20.7390577 0,18.2292916 0,15.5079377 C0,12.7865826 0.670573159,10.2768177 2.01171831,7.97864065 C3.35286463,5.68046242 5.17252628,3.86080187 7.47070325,2.5196555 C9.76888022,1.17850913 12.2786462,0.507937111 15,0.507937111 C17.7213538,0.507937111 20.2311198,1.17850913 22.5292967,2.5196555 C24.8274737,3.86080187 26.6471354,5.68046242 27.9882805,7.97864065 C29.3294268,10.2768177 30,12.7865826 30,15.5079377 C30,18.2292916 29.3294268,20.7390577 27.9882805,23.0372347 Z" id="Path" fill="#F9F9F9"></path>
                <use id="Shape" stroke="#36CFBC" mask="url(#mask-2)" stroke-width="4" xlink:href="#path-1"></use>
            </g>
            <g id="Icons/Idea-Green" transform="translate(0.000000, 1.000000)" fill="#36CFBC">
                <path d="M18.1056257,10.1512502 C18.1056257,10.2702474 18.0621454,10.3732259 17.9751856,10.4601857 C17.8882266,10.5471455 17.7852481,10.590625 17.6662501,10.590625 C17.547253,10.590625 17.4442745,10.5471455 17.3573147,10.4601857 C17.2703548,10.3732259 17.2268754,10.2702474 17.2268754,10.1512502 C17.2268754,9.73018239 16.9797271,9.40522825 16.4854299,9.17638697 C15.9911335,8.9475457 15.5059901,8.83312507 15.0300006,8.83312507 C14.9110026,8.83312507 14.8080241,8.78964475 14.7210643,8.70268576 C14.6341053,8.61572594 14.590625,8.51274745 14.590625,8.39375028 C14.590625,8.2747523 14.6341053,8.17177381 14.7210643,8.08481399 C14.8080241,7.997855 14.9110026,7.95437468 15.0300006,7.95437468 C15.4876823,7.95437468 15.9430766,8.02760409 16.3961818,8.17406207 C16.8492878,8.32052088 17.2474714,8.56766909 17.5907325,8.91550753 C17.9339944,9.26334597 18.1056257,9.67526075 18.1056257,10.1512502 L18.1056257,10.1512502 Z M20.3025005,10.1512502 C20.3025005,9.49218724 20.1446003,8.87889283 19.8287993,8.311367 C19.5129982,7.74384117 19.1010842,7.27929383 18.5930574,6.91772416 C18.0850297,6.55615532 17.5220804,6.2723924 16.9042095,6.06643542 C16.2863385,5.86047844 15.661602,5.75749995 15.0300006,5.75749995 C14.3983984,5.75749995 13.7736627,5.86047844 13.1557909,6.06643542 C12.53792,6.2723924 11.9749707,6.55615532 11.4669439,6.91772416 C10.9589162,7.27929383 10.5470023,7.74384117 10.2312012,8.311367 C9.91540008,8.87889283 9.75749995,9.49218724 9.75749995,10.1512502 C9.75749995,11.0757684 10.0687237,11.8995963 10.691172,12.6227348 C10.7827083,12.7234242 10.9223015,12.8744596 11.1099516,13.07584 C11.2976008,13.2772205 11.437194,13.428255 11.5287303,13.5289452 C12.7003975,14.9294537 13.3457293,16.2933466 13.4647264,17.6206256 L16.595274,17.6206256 C16.7142712,16.2933466 17.3596029,14.9294537 18.5312701,13.5289452 C18.6228065,13.428255 18.7623996,13.2772205 18.9500489,13.07584 C19.1376989,12.8744596 19.2772921,12.7234242 19.3688284,12.6227348 C19.9912767,11.8995963 20.3025005,11.0757684 20.3025005,10.1512502 L20.3025005,10.1512502 Z M22.0600004,10.1512502 C22.0600004,11.5700648 21.5885875,12.7966536 20.6457624,13.8310159 C20.2338484,14.2795445 19.8928748,14.6777281 19.6228423,15.0255665 C19.3528098,15.373405 19.080489,15.8104915 18.8058791,16.3368261 C18.5312701,16.8631607 18.3756582,17.3551697 18.3390435,17.8128522 C18.7692644,18.0691543 18.9843753,18.4444536 18.9843753,18.93875 C18.9843753,19.2774354 18.8699547,19.5703522 18.6411134,19.8175004 C18.8699547,20.0646486 18.9843753,20.3575654 18.9843753,20.6962508 C18.9843753,21.1722402 18.7784183,21.542963 18.3665044,21.8084181 C18.4855015,22.0189525 18.5450005,22.2340633 18.5450005,22.4537507 C18.5450005,22.8748185 18.4008308,23.1997727 18.1124905,23.428614 C17.8241511,23.6574552 17.469447,23.7718759 17.0483792,23.7718759 C16.8653065,24.174636 16.5906966,24.4950136 16.2245513,24.7330087 C15.8584051,24.9710031 15.4602215,25.0900002 15.0300006,25.0900002 C14.5997789,25.0900002 14.2015953,24.9710031 13.8354491,24.7330087 C13.4693038,24.4950136 13.1946939,24.174636 13.0116212,23.7718759 C12.5905534,23.7718759 12.2358502,23.6574552 11.9475099,23.428614 C11.6591704,23.1997727 11.5149999,22.8748185 11.5149999,22.4537507 C11.5149999,22.2340633 11.5744989,22.0189525 11.6934961,21.8084181 C11.2815821,21.542963 11.0756251,21.1722402 11.0756251,20.6962508 C11.0756251,20.3575654 11.1900458,20.0646486 11.418887,19.8175004 C11.1900458,19.5703522 11.0756251,19.2774354 11.0756251,18.93875 C11.0756251,18.4444536 11.290736,18.0691543 11.7209569,17.8128522 C11.684343,17.3551697 11.5287303,16.8631607 11.2541213,16.3368261 C10.9795114,15.8104915 10.7071907,15.373405 10.4371581,15.0255665 C10.1671256,14.6777281 9.826152,14.2795445 9.41423804,13.8310159 C8.47141295,12.7966536 8,11.5700648 8,10.1512502 C8,9.24503903 8.20366872,8.40061508 8.61100615,7.61797839 C9.01834276,6.8353417 9.55383123,6.18543259 10.2174708,5.66825187 C10.8811103,5.15107115 11.6317088,4.74373372 12.469268,4.4462404 C13.3068263,4.14874625 14.1604041,4 15.0300006,4 C15.8995963,4 16.7531741,4.14874625 17.5907325,4.4462404 C18.4282916,4.74373372 19.1788901,5.15107115 19.8425297,5.66825187 C20.5061692,6.18543259 21.0416577,6.8353417 21.4489943,7.61797839 C21.8563317,8.40061508 22.0600004,9.24503903 22.0600004,10.1512502 L22.0600004,10.1512502 Z" id="Shape"></path>
            </g>
        </g>
    </g>
</svg>