<?xml version="1.0" encoding="UTF-8" standalone="no"?>
<svg width="31px" height="31px" viewBox="0 0 31 31" version="1.1" xmlns="http://www.w3.org/2000/svg" xmlns:xlink="http://www.w3.org/1999/xlink">
    <!-- Generator: Sketch 39.1 (31720) - http://www.bohemiancoding.com/sketch -->
    <title>Icons/Idea-Black</title>
    <desc>Created with Sketch.</desc>
    <defs></defs>
    <g id="Symbols" stroke="none" stroke-width="1" fill="none" fill-rule="evenodd">
        <g id="Icons/Idea-Black">
            <g id="Icons-/-Idea">
                <polygon id="Shape" points="0 0 30.5244141 0 30.5244141 30.5244141 0 30.5244141"></polygon>
            </g>
            <g id="lightbulb-o" transform="translate(8.267029, 4.451477)" fill="#000000">
                <path d="M10.7152251,6.55647543 C10.7152251,6.68265084 10.6691219,6.79184127 10.5769164,6.88404674 C10.4847118,6.97625222 10.3755214,7.02235452 10.2493451,7.02235452 C10.1231697,7.02235452 10.0139793,6.97625222 9.92177382,6.88404674 C9.82956835,6.79184127 9.78346605,6.68265084 9.78346605,6.55647543 C9.78346605,6.11000761 9.52140917,5.76545133 8.99729454,5.52280572 C8.47318079,5.28016011 7.95877223,5.1588373 7.45406974,5.1588373 C7.32789347,5.1588373 7.21870303,5.11273413 7.12649756,5.02052953 C7.03429295,4.92832406 6.98818978,4.81913362 6.98818978,4.69295821 C6.98818978,4.56678194 7.03429295,4.4575915 7.12649756,4.36538603 C7.21870303,4.27318143 7.32789347,4.22707826 7.45406974,4.22707826 C7.93936009,4.22707826 8.42222502,4.30472506 8.90266277,4.4600178 C9.3831014,4.61531141 9.80530448,4.87736829 10.169272,5.2461893 C10.5332404,5.61501032 10.7152251,6.05177294 10.7152251,6.55647543 L10.7152251,6.55647543 Z M13.0446214,6.55647543 C13.0446214,5.85765593 12.8771963,5.2073659 12.5423452,4.60560534 C12.2074941,4.00384478 11.7707324,3.51127466 11.2320599,3.12789411 C10.6933867,2.74451442 10.0964787,2.44363414 9.44133606,2.22525327 C8.78619343,2.00687239 8.12377104,1.89768195 7.45406974,1.89768195 C6.78436757,1.89768195 6.12194605,2.00687239 5.46680255,2.22525327 C4.81165992,2.44363414 4.21475196,2.74451442 3.67607954,3.12789411 C3.13740624,3.51127466 2.70064449,4.00384478 2.36579341,4.60560534 C2.03094232,5.2073659 1.86351722,5.85765593 1.86351722,6.55647543 C1.86351722,7.53676307 2.19351483,8.41028658 2.85351093,9.17704682 C2.950569,9.28381009 3.09858284,9.44395629 3.29755245,9.65748457 C3.49652119,9.87101285 3.64453503,10.0311582 3.7415931,10.1379223 C4.98393849,11.6229133 5.66819846,13.0690801 5.79437386,14.4764243 L9.11376475,14.4764243 C9.23994015,13.0690801 9.92420012,11.6229133 11.1665455,10.1379223 C11.2636036,10.0311582 11.4116174,9.87101285 11.6105862,9.65748457 C11.8095558,9.44395629 11.9575696,9.28381009 12.0546277,9.17704682 C12.7146238,8.41028658 13.0446214,7.53676307 13.0446214,6.55647543 L13.0446214,6.55647543 Z M14.9081386,6.55647543 C14.9081386,8.06087683 14.4082887,9.36145689 13.4085898,10.4582147 C12.9718281,10.9337999 12.6102859,11.356003 12.3239643,11.724824 C12.0376427,12.093645 11.7488948,12.5570978 11.4577197,13.1151824 C11.1665455,13.6732669 11.0015467,14.1949552 10.9627233,14.6802465 C11.4188963,14.9520094 11.6469833,15.3499478 11.6469833,15.8740615 C11.6469833,16.2331773 11.5256605,16.5437637 11.2830148,16.8058206 C11.5256605,17.0678774 11.6469833,17.3784638 11.6469833,17.7375796 C11.6469833,18.2422821 11.4286024,18.6353678 10.9918406,18.916836 C11.118016,19.1400703 11.1811042,19.3681573 11.1811042,19.6010968 C11.1811042,20.0475646 11.0282377,20.3921209 10.722504,20.6347665 C10.4167711,20.8774121 10.0406703,20.998735 9.5942025,20.998735 C9.40008636,21.4257906 9.10891128,21.7654943 8.720679,22.017846 C8.33244585,22.2701968 7.91024276,22.3963722 7.45406974,22.3963722 C6.99789585,22.3963722 6.57569277,22.2701968 6.18745961,22.017846 C5.79922733,21.7654943 5.50805225,21.4257906 5.31393611,20.998735 C4.86746829,20.998735 4.49136837,20.8774121 4.18563462,20.6347665 C3.87990174,20.3921209 3.72703444,20.0475646 3.72703444,19.6010968 C3.72703444,19.3681573 3.79012257,19.1400703 3.91629798,18.916836 C3.47953622,18.6353678 3.26115535,18.2422821 3.26115535,17.7375796 C3.26115535,17.3784638 3.38247815,17.0678774 3.62512377,16.8058206 C3.38247815,16.5437637 3.26115535,16.2331773 3.26115535,15.8740615 C3.26115535,15.3499478 3.48924229,14.9520094 3.94541531,14.6802465 C3.90659278,14.1949552 3.7415931,13.6732669 3.45041889,13.1151824 C3.15924381,12.5570978 2.8704959,12.093645 2.58417428,11.724824 C2.29785267,11.356003 1.93631055,10.9337999 1.4995488,10.4582147 C0.49984989,9.36145689 0,8.06087683 0,6.55647543 C0,5.59559905 0.215954577,4.70023711 0.64786373,3.87038961 C1.07977201,3.0405421 1.64756264,2.35142867 2.35123474,1.80305018 C3.05490684,1.25467169 3.85078354,0.822762536 4.73886658,0.507323588 C5.62694876,0.191883772 6.53201677,0.0341647331 7.45406974,0.0341647331 C8.37612185,0.0341647331 9.28118986,0.191883772 10.169272,0.507323588 C11.0573551,0.822762536 11.8532318,1.25467169 12.5569039,1.80305018 C13.260576,2.35142867 13.8283666,3.0405421 14.2602749,3.87038961 C14.692184,4.70023711 14.9081386,5.59559905 14.9081386,6.55647543 L14.9081386,6.55647543 Z" id="Shape"></path>
            </g>
        </g>
    </g>
</svg>