<?xml version="1.0" encoding="UTF-8" standalone="no"?>
<svg width="50px" height="50px" viewBox="0 0 50 50" version="1.1" xmlns="http://www.w3.org/2000/svg" xmlns:xlink="http://www.w3.org/1999/xlink">
    <!-- Generator: Sketch 39.1 (31720) - http://www.bohemiancoding.com/sketch -->
    <title>Icons/PaintBucketLarge-Black</title>
    <desc>Created with Sketch.</desc>
    <defs></defs>
    <g id="Symbols" stroke="none" stroke-width="1" fill="none" fill-rule="evenodd">
        <g id="Icons/PaintBucketLarge-Black" fill="#373B3E">
            <path d="M41.6,13.8 C41.6,21.1052 35.8292,28.5 24.8,28.5 C13.257,28.5 8,20.8798 8,13.8 L10.8,13.8 L10.8,11 L38.8,11 L38.8,13.8 L41.6,13.8 Z M38.8,24.5828 L38.8,39 L10.8,39 L10.8,24.6822 C11.6232,25.4844 12.5584,26.2152 13.6,26.8592 L13.6,36.2 L36,36.2 L36,26.7878 C37.0402,26.1382 37.9684,25.3934 38.8,24.5828 Z M24.8,27.1 C29.6776,27.1 33.4212,25.5348 36,23.18 L36,13.8 C35.2258,13.8 33.2,14.0842 33.2,16.6 L33.2,18.7 C33.2,19.8606 32.2592,20.8 31.1,20.8 C29.9408,20.8 29,19.8606 29,18.7 L29,18 C29,17.2272 28.3742,16.6 27.6,16.6 C26.8258,16.6 26.2,17.2272 26.2,18 L26.2,23.6 C26.2,24.3728 25.5742,25 24.8,25 C24.0258,25 23.4,24.3728 23.4,23.6 L23.4,19.4 C23.4,18.6272 22.7742,18 22,18 C21.2258,18 20.6,18.6272 20.6,19.4 L20.6,21.5 C20.6,22.6606 19.6592,23.6 18.5,23.6 C17.3408,23.6 16.4,22.6606 16.4,21.5 L16.4,16.6 C16.4,14.1276 14.3742,13.8 13.6,13.8 L13.6,23.2836 C16.1242,25.5684 19.8188,27.1 24.8,27.1 Z" id="Combined-Shape"></path>
        </g>
    </g>
</svg>