<?xml version="1.0" encoding="UTF-8" standalone="no"?>
<svg width="30px" height="30px" viewBox="0 0 30 30" version="1.1" xmlns="http://www.w3.org/2000/svg" xmlns:xlink="http://www.w3.org/1999/xlink">
    <!-- Generator: Sketch 39.1 (31720) - http://www.bohemiancoding.com/sketch -->
    <title>Icons/Password-Grey</title>
    <desc>Created with Sketch.</desc>
    <defs></defs>
    <g id="Symbols" stroke="none" stroke-width="1" fill="none" fill-rule="evenodd">
        <g id="Icons/Password-Grey" fill="#DADADA">
            <g id="Group" transform="translate(8.000000, 5.000000)">
                <path d="M1.80645161,19.1333333 L12.1935484,19.1333333 L12.1935484,9.33333333 L1.80645161,9.33333333 L1.80645161,19.1333333 Z M3.38709677,5.86133333 C3.38709677,3.472 4.87967742,1.86666667 7,1.86666667 C9.12032258,1.86666667 10.6129032,3.472 10.6129032,5.86133333 L10.6129032,7.46666667 L3.38709677,7.46666667 L3.38709677,5.86133333 Z M13.097,7.46666667 L12.4193548,7.46666667 L12.4193548,5.86133333 C12.4193548,2.41033333 10.1509032,0 7,0 C3.84909677,0 1.58064516,2.41033333 1.58064516,5.86133333 L1.58064516,7.46666667 L0.903451613,7.46666667 C0.404645161,7.46666667 0,7.88806667 0,8.4035 L0,20.0666667 C0,20.5821 0.404645161,21 0.903451613,21 L13.097,21 C13.5958065,21 14,20.5821 14,20.0666667 L14,8.4035 C14,7.88806667 13.5958065,7.46666667 13.097,7.46666667 L13.097,7.46666667 Z" id="Fill-1"></path>
                <path d="M6.43928571,14.5607143 C6.16071429,14.2821429 6,13.8942857 6,13.5 C6,13.1057143 6.16071429,12.7178571 6.43928571,12.4392857 C6.71785714,12.1607143 7.10571429,12 7.5,12 C7.89428571,12 8.28214286,12.1607143 8.56071429,12.4392857 C8.83928571,12.7178571 9,13.1057143 9,13.5 C9,13.8942857 8.83928571,14.2821429 8.56071429,14.5607143 C8.28214286,14.8392857 7.89428571,15 7.5,15 C7.10571429,15 6.71785714,14.8392857 6.43928571,14.5607143 Z" id="Fill-3"></path>
            </g>
        </g>
    </g>
</svg>