<?xml version="1.0" encoding="UTF-8" standalone="no"?>
<svg width="50px" height="50px" viewBox="0 0 50 50" version="1.1" xmlns="http://www.w3.org/2000/svg" xmlns:xlink="http://www.w3.org/1999/xlink">
    <!-- Generator: Sketch 39.1 (31720) - http://www.bohemiancoding.com/sketch -->
    <title>Icons/Players-Black</title>
    <desc>Created with Sketch.</desc>
    <defs></defs>
    <g id="Symbols" stroke="none" stroke-width="1" fill="none" fill-rule="evenodd">
        <g id="Icons/Players-Black" fill="#000000">
            <path d="M37.6029754,23.4352312 C37.6029754,21.5131119 36.0368855,19.9487803 34.112129,19.9487803 C33.6400604,19.9487803 33.1824967,20.0410842 32.7521846,20.2230548 C32.0810032,20.5069992 31.3074084,20.1927263 31.0243431,19.5219845 C30.7408382,18.8508031 31.0546715,18.0776479 31.7254133,17.794143 C32.4823055,17.4737166 33.2853496,17.3115254 34.112129,17.3115254 C37.4913316,17.3115254 40.2402302,20.0586659 40.2402302,23.4352312 C40.2402302,26.8117965 37.4913316,29.558937 34.112129,29.558937 C32.357915,29.558937 30.6845768,28.8051216 29.5211078,27.4913292 C29.0384902,26.945857 29.0890376,26.1124844 29.6345098,25.6298668 C30.1791029,25.1472491 31.012915,25.1977965 31.4955326,25.7432687 C32.1588022,26.4922491 33.1126094,26.9216821 34.112129,26.9216821 C36.0368855,26.9216821 37.6029754,25.35779 37.6029754,23.4352312 L37.6029754,23.4352312 Z M44.9982775,35.0721183 C44.9982775,35.8004402 44.407972,36.3727245 43.6796501,36.3727245 L37.8042858,36.3727245 C37.0759639,36.3727245 36.4856584,35.7819794 36.4856584,35.054097 C36.4856584,34.3257752 37.0759639,33.7354696 37.8042858,33.7354696 L41.717972,33.7354696 C41.0801959,32.8563847 40.0103495,32.1627866 38.7000734,31.442816 C38.0618577,31.0920611 37.8289002,30.3087965 38.1796551,29.6705808 C38.5299704,29.031486 39.3321355,28.7994076 39.9703511,29.1501625 C41.8480766,30.1817687 44.9982775,32.3078356 44.9982775,35.0721183 L44.9982775,35.0721183 Z M9.94388587,36.3727245 C11.435693,35.2510121 13.9349316,33.9842506 16.6513041,33.0458275 L19.6551374,34.867731 C20.2159936,35.2074974 20.918822,35.2074974 21.4787991,34.867731 L24.4830719,33.0458275 C27.199884,33.9842506 29.698683,35.2510121 31.1909297,36.3727245 L9.94388587,36.3727245 Z M24.7973448,29.445535 C24.3142876,29.2930138 23.7881553,29.3549893 23.3543269,29.6178357 L20.567188,31.308316 L17.7800492,29.6178357 C17.3457812,29.3549893 16.8196488,29.2925742 16.3370312,29.445535 C13.6773597,30.289017 4.99991209,33.4080105 4.99991209,38.1308944 C4.99991209,39.1018437 5.78713266,39.8890643 6.758082,39.8890643 L34.376294,39.8890643 C35.3472434,39.8890643 36.1344639,39.1018437 36.1344639,38.1308944 C36.1344639,33.4080105 27.4570163,30.289017 24.7973448,29.445535 L24.7973448,29.445535 Z M20.567188,13.5165156 C23.7543105,13.5165156 26.3471716,16.1062999 26.3471716,19.2894665 C26.3471716,22.4730727 23.7543105,25.062857 20.567188,25.062857 C17.3800655,25.062857 14.7867649,22.4730727 14.7867649,19.2894665 C14.7867649,16.1062999 17.3800655,13.5165156 20.567188,13.5165156 L20.567188,13.5165156 Z M20.567188,28.5791968 C25.6931324,28.5791968 29.8635114,24.4118946 29.8635114,19.2894665 C29.8635114,14.1674781 25.6931324,10.0001758 20.567188,10.0001758 C15.4408041,10.0001758 11.2704251,14.1674781 11.2704251,19.2894665 C11.2704251,24.4118946 15.4408041,28.5791968 20.567188,28.5791968 L20.567188,28.5791968 Z" id="Fill-1"></path>
        </g>
    </g>
</svg>