<?xml version="1.0" encoding="UTF-8" standalone="no"?>
<svg width="30px" height="30px" viewBox="0 0 30 30" version="1.1" xmlns="http://www.w3.org/2000/svg" xmlns:xlink="http://www.w3.org/1999/xlink">
    <!-- Generator: Sketch 39.1 (31720) - http://www.bohemiancoding.com/sketch -->
    <title>Icons/End-GreyFill</title>
    <desc>Created with Sketch.</desc>
    <defs>
        <circle id="path-1" cx="15" cy="15" r="15"></circle>
        <mask id="mask-2" maskContentUnits="userSpaceOnUse" maskUnits="objectBoundingBox" x="0" y="0" width="30" height="30" fill="white">
            <use xlink:href="#path-1"></use>
        </mask>
    </defs>
    <g id="Mockup" stroke="none" stroke-width="1" fill="none" fill-rule="evenodd">
        <g id="Desktop---2.2.5-Ending---Result" transform="translate(-617.000000, -190.000000)">
            <g id="Process" transform="translate(455.000000, 190.000000)">
                <g id="Icons/End-GreyFill" transform="translate(162.000000, 0.000000)">
                    <use id="Oval-45" stroke="#DADADA" mask="url(#mask-2)" stroke-width="10" fill="#D8D8D8" xlink:href="#path-1"></use>
                    <path d="M9.58325195,16.4819336 L6.52172852,16.4819336 L6.52172852,18.9580078 L10.1311035,18.9580078 L10.1311035,20 L5.21655273,20 L5.21655273,12.1796875 L10.0935059,12.1796875 L10.0935059,13.2270508 L6.52172852,13.2270508 L6.52172852,15.4345703 L9.58325195,15.4345703 L9.58325195,16.4819336 Z M17.4143066,20 L16.1091309,20 L12.6447754,14.3657227 L12.6125488,14.3764648 L12.6125488,20 L11.307373,20 L11.307373,12.1796875 L12.6125488,12.1796875 L16.0769043,17.8139648 L16.1091309,17.8032227 L16.1091309,12.1796875 L17.4143066,12.1796875 L17.4143066,20 Z M19.0578613,20 L19.0578613,12.1796875 L21.6413574,12.1796875 C22.6332244,12.1796875 23.4397755,12.4894175 24.0610352,13.1088867 C24.6822948,13.728356 24.9929199,14.5250602 24.9929199,15.4990234 L24.9929199,16.6860352 C24.9929199,17.6635791 24.6822948,18.4602834 24.0610352,19.0761719 C23.4397755,19.6920604 22.6332244,20 21.6413574,20 L19.0578613,20 Z M20.3630371,13.2270508 L20.3630371,18.9580078 L21.6413574,18.9580078 C22.2679882,18.9580078 22.7657045,18.7458517 23.1345215,18.3215332 C23.5033384,17.8972147 23.6877441,17.3520541 23.6877441,16.6860352 L23.6877441,15.4882812 C23.6877441,14.8294238 23.5033384,14.2878439 23.1345215,13.8635254 C22.7657045,13.4392069 22.2679882,13.2270508 21.6413574,13.2270508 L20.3630371,13.2270508 Z" id="END" fill="#FFFFFF"></path>
                </g>
            </g>
        </g>
    </g>
</svg>