<?xml version="1.0" encoding="UTF-8" standalone="no"?>
<svg width="30px" height="30px" viewBox="0 0 30 30" version="1.1" xmlns="http://www.w3.org/2000/svg" xmlns:xlink="http://www.w3.org/1999/xlink">
    <!-- Generator: Sketch 39.1 (31720) - http://www.bohemiancoding.com/sketch -->
    <title>Icons/Room/Private-GreyFill</title>
    <desc>Created with Sketch.</desc>
    <defs>
        <circle id="path-1" cx="15" cy="15" r="15"></circle>
        <mask id="mask-2" maskContentUnits="userSpaceOnUse" maskUnits="objectBoundingBox" x="0" y="0" width="30" height="30" fill="white">
            <use xlink:href="#path-1"></use>
        </mask>
    </defs>
    <g id="Symbols" stroke="none" stroke-width="1" fill="none" fill-rule="evenodd">
        <g id="Icons/Room/Private-GreyFill">
            <use id="Oval-45" stroke="#DADADA" mask="url(#mask-2)" stroke-width="10" fill="#D8D8D8" xlink:href="#path-1"></use>
            <g id="Icons/Password-White" fill="#FFFFFF">
                <g id="Group" transform="translate(8.000000, 5.000000)">
                    <path d="M1.86666667,19.1333333 L12.6,19.1333333 L12.6,9.33333333 L1.86666667,9.33333333 L1.86666667,19.1333333 Z M3.5,5.86133333 C3.5,3.472 5.04233333,1.86666667 7.23333333,1.86666667 C9.42433333,1.86666667 10.9666667,3.472 10.9666667,5.86133333 L10.9666667,7.46666667 L3.5,7.46666667 L3.5,5.86133333 Z M13.5335667,7.46666667 L12.8333333,7.46666667 L12.8333333,5.86133333 C12.8333333,2.41033333 10.4892667,0 7.23333333,0 C3.9774,0 1.63333333,2.41033333 1.63333333,5.86133333 L1.63333333,7.46666667 L0.933566667,7.46666667 C0.418133333,7.46666667 0,7.88806667 0,8.4035 L0,20.0666667 C0,20.5821 0.418133333,21 0.933566667,21 L13.5335667,21 C14.049,21 14.4666667,20.5821 14.4666667,20.0666667 L14.4666667,8.4035 C14.4666667,7.88806667 14.049,7.46666667 13.5335667,7.46666667 L13.5335667,7.46666667 Z" id="Fill-1"></path>
                    <path d="M6.07833333,15.2229467 C5.775,14.9196133 5.6,14.49728 5.6,14.0679467 C5.6,13.6386133 5.775,13.21628 6.07833333,12.9129467 C6.38166667,12.6096133 6.804,12.4346133 7.23333333,12.4346133 C7.66266667,12.4346133 8.085,12.6096133 8.38833333,12.9129467 C8.69166667,13.21628 8.86666667,13.6386133 8.86666667,14.0679467 C8.86666667,14.49728 8.69166667,14.9196133 8.38833333,15.2229467 C8.085,15.52628 7.66266667,15.70128 7.23333333,15.70128 C6.804,15.70128 6.38166667,15.52628 6.07833333,15.2229467 Z" id="Fill-3"></path>
                </g>
            </g>
        </g>
    </g>
</svg>