<?xml version="1.0" encoding="UTF-8" standalone="no"?>
<svg width="30px" height="30px" viewBox="0 0 30 30" version="1.1" xmlns="http://www.w3.org/2000/svg" xmlns:xlink="http://www.w3.org/1999/xlink">
    <!-- Generator: Sketch 39.1 (31720) - http://www.bohemiancoding.com/sketch -->
    <title>Icons/Room/Public-GreenFill</title>
    <desc>Created with Sketch.</desc>
    <defs></defs>
    <g id="Symbols" stroke="none" stroke-width="1" fill="none" fill-rule="evenodd">
        <g id="Icons/Room/Public-GreenFill">
            <circle id="Oval-45" fill="#36CFBC" cx="15" cy="15" r="15"></circle>
            <g id="Icons/Public-White" fill="#FFFFFF">
                <path d="M8.89601461,23.4341498 L19.7980986,23.4341498 L19.7980986,13.480073 L8.89601461,13.480073 L8.89601461,23.4341498 Z M20.7463429,11.5840584 L10.5550274,11.5840584 L10.5550274,9.95348588 C10.5550274,7.52658717 12.0860592,5.89601461 14.3115063,5.89601461 C15.9325988,5.89601461 17.1974776,6.73642309 17.7501658,8.20180538 C17.9350273,8.69168815 18.4907965,8.93888106 18.9806793,8.75425663 C19.4705621,8.56939521 19.722495,8.022632 19.5376336,7.53274922 C18.7031502,5.32057418 16.72774,4 14.3093733,4 C11.0022498,4 8.65901278,6.44822887 8.65901278,9.95348588 L8.65901278,11.5840584 L7.94824431,11.5840584 C7.42470727,11.5840584 7,12.0120837 7,12.5356208 L7,24.3821571 C7,24.9056941 7.42470727,25.3301644 7.94824431,25.3301644 L20.7463429,25.3301644 C21.26988,25.3301644 21.6941132,24.9056941 21.6941132,24.3821571 L21.6941132,12.5356208 C21.6941132,12.0120837 21.26988,11.5840584 20.7463429,11.5840584 L20.7463429,11.5840584 Z" id="Fill-1"></path>
                <path d="M21.9480073,8.27693496 C22.4715443,8.27693496 22.8960146,7.85246469 22.8960146,7.32892765 L22.8960146,4.9480073 C22.8960146,4.42447027 22.4715443,4 21.9480073,4 C21.4244703,4 21,4.42447027 21,4.9480073 L21,7.32892765 C21,7.85246469 21.4244703,8.27693496 21.9480073,8.27693496" id="Fill-3"></path>
                <path d="M24.9480073,10.8960146 L27.3291647,10.8960146 C27.8527017,10.8960146 28.277172,10.4715443 28.277172,9.9480073 C28.277172,9.42447027 27.8527017,9 27.3291647,9 L24.9480073,9 C24.4244703,9 24,9.42447027 24,9.9480073 C24,10.4715443 24.4244703,10.8960146 24.9480073,10.8960146" id="Fill-4"></path>
            </g>
        </g>
    </g>
</svg>