<?xml version="1.0" encoding="UTF-8" standalone="no"?>
<svg width="30px" height="30px" viewBox="0 0 30 30" version="1.1" xmlns="http://www.w3.org/2000/svg" xmlns:xlink="http://www.w3.org/1999/xlink">
    <!-- Generator: Sketch 39.1 (31720) - http://www.bohemiancoding.com/sketch -->
    <title>Icons/Room/YourGallery-PurpleFill</title>
    <desc>Created with Sketch.</desc>
    <defs></defs>
    <g id="Symbols" stroke="none" stroke-width="1" fill="none" fill-rule="evenodd">
        <g id="Icons/Room/YourGallery-PurpleFill">
            <circle id="Oval-45" fill="#594EC9" cx="15" cy="15" r="15"></circle>
            <g id="Icons/Player-White" fill="#FFFFFF">
                <path d="M7.19565217,21.9565217 C8.15456522,20.9417391 10.4482609,19.8115217 12.365,19.1434783 L14.4367391,20.9054348 C14.7615217,21.1817391 15.2384783,21.1817391 15.5634783,20.9054348 L17.6352174,19.1434783 C19.5519565,19.8115217 21.8456522,20.9417391 22.8045652,21.9565217 L7.19565217,21.9565217 Z M17.71,17.335 C17.423913,17.2432609 17.111087,17.3063043 16.8821739,17.5008696 L15,19.1015217 L13.1178261,17.5008696 C12.8891304,17.3063043 12.5763043,17.2432609 12.2902174,17.335 C11.0728261,17.7232609 5,19.8132609 5,22.826087 C5,23.3063043 5.38934783,23.6956522 5.86956522,23.6956522 L24.1304348,23.6956522 C24.6106522,23.6956522 25,23.3063043 25,22.826087 C25,19.8132609 18.9271739,17.7232609 17.71,17.335 L17.71,17.335 Z M15,6.73913043 C17.2686957,6.73913043 19.1143478,8.59652174 19.1143478,10.8793478 C19.1143478,13.1628261 17.2686957,15.0204348 15,15.0204348 C12.7315217,15.0204348 10.8858696,13.1628261 10.8858696,10.8793478 C10.8858696,8.59652174 12.7315217,6.73913043 15,6.73913043 L15,6.73913043 Z M15,16.7595652 C18.2276087,16.7595652 20.8534783,14.1217391 20.8534783,10.8793478 C20.8534783,7.6373913 18.2276087,5 15,5 C11.7726087,5 9.14673913,7.6373913 9.14673913,10.8793478 C9.14673913,14.1217391 11.7726087,16.7595652 15,16.7595652 L15,16.7595652 Z" id="Fill-1"></path>
            </g>
        </g>
    </g>
</svg>