<?xml version="1.0" encoding="UTF-8" standalone="no"?>
<svg width="109px" height="35px" viewBox="0 0 109 35" version="1.1" xmlns="http://www.w3.org/2000/svg" xmlns:xlink="http://www.w3.org/1999/xlink">
    <!-- Generator: Sketch 3.8.3 (29802) - http://www.bohemiancoding.com/sketch -->
    <title>Vector / Logo Small (Black)</title>
    <desc>Created with Sketch.</desc>
    <defs></defs>
    <g id="Symbols" stroke="none" stroke-width="1" fill="none" fill-rule="evenodd">
        <g id="Vector-/-Logo-Small-(Black)" stroke-width="0.5" fill="#000000">
            <g id="Logo">
                <path d="M19.5743506,-7.38681483e-05 L19.0347802,0.0490484505 L18.3969552,0.0981707692 L17.3668494,0.196600077 L16.1892697,0.491333989 L15.6987344,0.638885616 L15.0609094,0.786252572 L14.3250142,0.982926517 L13.6873736,1.22872278 L13.245689,1.37608974 L12.8534082,1.57257901 L12.4117237,1.86731292 L11.8721532,2.16241618 L10.792828,2.85049798 L10.3515121,3.14541656 L10.0078978,3.39102815 L9.71350282,3.68594674 L9.0268271,4.27559923 L8.68321272,4.61964013 L8.38900213,5.01280335 L8.19286173,5.2094773 L7.8984668,5.65176284 L7.65292262,5.99561907 L7.45696657,6.38896696 L7.21160673,6.78213018 L6.81895725,7.56845662 L6.62281686,8.01074216 L6.47571156,8.40390538 L6.18131663,9.28847645 L6.08343077,9.73076199 L5.98517623,10.6155177 L5.98517623,11.9423744 L6.03402699,12.4339669 L6.13228153,12.8762524 L6.23035173,13.2694156 L6.32860627,13.7117012 L6.47571156,14.1539867 L6.86817669,14.9404978 L7.35871203,15.7266396 L7.60407186,16.0706805 L8.48725667,17.1028032 L8.87953746,17.3484148 L9.32122203,17.4468441 L9.81175736,17.3975371 L10.2532576,17.2501702 L10.6459071,16.9552516 L10.9891528,16.6112107 L11.2345126,16.2182321 L11.2345126,15.7757619 L11.087223,15.3827834 L10.6947578,14.5964569 L10.5476525,14.1539867 L10.3515121,13.7608235 L10.2042225,13.318538 L10.1061523,12.8762524 L10.0078978,12.4829045 L9.95886266,12.040619 L9.95886266,11.1069256 L10.0078978,10.6646401 L10.1550031,10.0258652 L10.3022927,9.43602808 L10.4495823,8.99374254 L10.6459071,8.551457 L10.8418631,8.20723143 L11.3325828,7.42108966 L11.5777583,7.07704876 L11.8231181,6.68370087 L12.755338,5.75000747 L13.4420138,5.16035498 L14.226944,4.66876245 L14.5703741,4.42315086 L14.9628392,4.22647691 L15.3553043,3.98086532 L15.7477695,3.78419137 L16.1892697,3.63682442 L16.6309543,3.53839511 L17.0234194,3.44015047 L17.9064199,3.24347653 L19.2311049,3.09610957 L19.6726051,3.09610957 L20.5557899,3.04698725 L20.9480707,3.04698725 L22.4196767,3.29278352 L22.9594315,3.39102815 L23.5482214,3.48927279 L24.0385723,3.63682442 L24.6275466,3.88243601 L25.167117,4.12823228 L26.0010824,4.5213955 L26.3935475,4.71788477 L26.7860126,4.96368103 L27.1294427,5.2094773 L27.8163027,5.79931446 L28.4049083,6.4872116 L29.1900229,7.47002731 L29.4844178,7.8633752 L29.7295933,8.20723143 L29.9257337,8.64970164 L30.1710935,9.19023182 L30.416269,9.78006898 L30.6127781,10.2223545 L30.7598834,10.6155177 L30.9560238,11.0084963 L31.1033134,11.4509665 L31.2013836,11.893252 L31.2996382,12.4829045 L31.3977084,13.1220487 L31.4955942,14.0066198 L31.5446293,14.5471499 L31.5938488,14.8420685 L31.6428839,15.3334764 L31.6428839,15.7757619 L31.691919,16.2182321 L31.691919,16.6605177 L31.6428839,17.1028032 L31.6428839,18.0366813 L31.5938488,18.5772114 L31.3977084,19.6584565 L31.3484889,20.1989866 L31.2013836,21.1328647 L31.1033134,21.6240879 L31.0542783,21.9190065 L30.9560238,22.4597213 L30.8089185,23.0984961 L30.6616289,23.6883333 L30.4653041,24.1799258 L30.2693481,24.7695783 L30.0239882,25.3592308 L29.8276635,25.801701 L29.6313387,26.1946796 L29.3861633,26.6371498 L29.239058,26.9320684 L28.9936981,27.3743539 L28.7973734,27.7675171 L28.5521979,28.111558 L27.963408,28.7996398 L27.619978,29.1434961 L27.3257674,29.487537 L27.0313725,29.7824555 L26.6877581,30.0771895 L26.3445124,30.3229857 L25.9522316,30.568782 L25.2161521,31.0601898 L24.7746519,31.2568638 L24.3821867,31.4042307 L23.9405021,31.4533531 L23.4991863,31.5515977 L23.0575017,31.6009047 L20.8990356,31.6009047 L20.4575354,31.5515977 L19.9668157,31.4042307 L19.3780259,31.2568638 L18.642315,31.0110675 L17.955455,30.7652713 L17.4647353,30.568782 L16.5819192,30.1264964 L16.0421644,29.8808849 L15.6496993,29.6349039 L14.9628392,29.0945584 L14.7174794,28.8485775 L14.6194092,28.4554143 L14.7174794,28.0624357 L14.9139884,27.7183948 L15.1101288,27.3252316 L15.2572341,26.9320684 L15.4043394,26.4895982 L15.5516291,26.0964349 L15.6496993,25.6541494 L15.7969889,25.2118639 L15.9439099,24.8187006 L16.0421644,24.3764151 L16.1892697,23.9339449 L16.3365593,23.5409663 L16.4836646,23.0984961 L16.6309543,22.4597213 L16.7778752,21.9190065 L16.9253492,21.4277833 L17.0724545,20.9854978 L17.1214896,20.5921499 L17.2685949,20.1496797 L17.3668494,19.7073941 L17.5139547,19.2652932 L17.6122093,18.822823 L17.7591302,18.2331705 L17.9064199,17.5942111 L18.0537095,17.1519255 L18.2008148,16.7587623 L18.298885,16.3164768 L18.4461746,15.8741912 L18.4950254,15.431721 L18.5930956,14.9894355 L18.7405696,14.5964569 L18.8874905,14.1539867 L19.0838153,13.7608235 L19.2311049,13.318538 L19.3291751,12.9253747 L19.476096,12.4829045 L20.0650703,11.3035995 L20.3102458,10.8611293 L20.4575354,10.4188438 L20.6536758,10.1241099 L20.8007811,9.68163967 L20.9969215,9.28847645 L21.2424657,8.94443555 L21.4878255,8.551457 L21.7820361,8.25635375 L22.1252818,7.96161984 L22.5179313,7.71600824 L22.9103964,7.42108966 L23.1067211,7.02792644 L23.0086509,6.58545623 L22.714256,6.2416 L22.3216065,5.99561907 L21.8802906,5.79931446 L21.3897553,5.70088516 L20.9480707,5.70088516 L20.5063862,5.79931446 L20.1141054,5.94668142 L19.7214559,6.14317069 L19.3291751,6.43790461 L18.8874905,6.8312525 L18.5442448,7.1752934 L18.2008148,7.56845662 L17.9064199,8.01074216 L17.66106,8.35478306 L17.4647353,8.74794628 L17.2195598,9.09198718 L16.827279,9.87831362 L16.5819192,10.2714768 L16.3855944,10.6155177 L16.1892697,11.0084963 L15.9933136,11.4509665 L15.8458397,12.040619 L15.6496993,12.6304562 L15.4535589,13.1220487 L15.3062692,13.6625789 L15.1589796,14.0066198 L15.0120586,14.6453946 L14.8155496,15.2352317 L14.7666988,15.5301503 L14.6194092,16.0215582 L14.521339,16.4638437 L14.3742337,16.9552516 L14.2759791,17.2501702 L14.0798387,17.938252 L13.8836983,18.7245784 L13.6873736,19.5600272 L13.540084,20.1989866 L13.245689,21.0835577 L13.1478032,21.5258433 L12.8534082,22.7055176 L12.7061186,23.1969254 L12.6080484,23.5900887 L12.4609431,24.0323742 L12.1665482,24.8187006 L11.8721532,25.7034564 L11.5777583,26.1457419 L11.0381879,26.2931089 L10.4984331,26.1457419 L10.0569329,25.949068 L9.66446772,25.7034564 L9.22296749,25.5065978 L8.63436196,25.2609862 L8.04557209,25.0643122 L7.16257163,24.867823 L6.6720363,24.8187006 L4.90566669,24.8187006 L4.4643508,24.867823 L3.58116599,25.0643122 L3.1398501,25.2118639 L2.74720063,25.4083531 L2.35491984,25.6541494 L1.66787543,26.2439866 L1.0792699,26.9320684 L0.834094404,27.2761093 L0.637585324,27.6690878 L0.49066437,28.111558 L0.343190389,28.5045366 L0.196269435,28.9470068 L-5.53027432e-05,29.8315779 L-5.53027432e-05,30.2247411 L0.196269435,31.1093122 L0.39240983,31.6989647 L0.686804766,32.2396795 L0.93198026,32.6330274 L1.37348049,33.1244353 L1.96227036,33.6158431 L2.50184079,33.959884 L2.94352537,34.1563733 L3.58116599,34.3530472 L4.31706116,34.5988435 L5.15102652,34.7462104 L5.78903584,34.7953328 L6.27938682,34.7953328 L7.50600166,34.6970881 L7.9475019,34.5495365 L8.58532687,34.4021695 L9.27218693,34.1563733 L9.86079246,33.9107617 L10.3515121,33.6651501 L10.8910826,33.3700468 L11.3814336,32.9770683 L11.7250479,32.7310874 L12.068478,32.4363534 L12.3628729,32.0923125 L12.755338,31.6989647 L13.1966539,31.5026601 L13.540084,31.6009047 L13.9325491,31.8956386 L14.2759791,32.1907419 L14.6194092,32.4363534 L15.0120586,32.6821497 L15.4043394,32.878639 L15.8458397,33.0751283 L16.6309543,33.4684762 L17.0724545,33.6651501 L17.4647353,33.8125171 L17.9064199,33.959884 L18.3479201,34.0581286 L18.7894203,34.2054956 L19.2311049,34.3039249 L20.0650703,34.5495365 L20.5063862,34.5988435 L21.4878255,34.6970881 L23.2047913,34.6970881 L24.529292,34.5495365 L25.1180819,34.4512919 L25.7557225,34.3039249 L26.1974071,34.1563733 L26.6389073,33.959884 L27.0804076,33.8125171 L27.8163027,33.4191692 L28.8956279,32.7310874 L29.582488,32.1414349 L29.9257337,31.8956386 L30.2201286,31.6009047 L30.8089185,30.9619452 L31.1521642,30.6179043 L31.8882437,29.5859663 L32.1824543,29.1928031 L32.4279985,28.8485775 L32.8202793,28.0624357 L33.0654547,27.7183948 L33.4581042,26.9320684 L33.6540603,26.4895982 L34.193815,24.867823 L34.3901398,24.4255374 L34.5374294,24.0323742 L34.6843504,23.5900887 L34.8806751,22.9511292 L34.9787453,22.3614767 L35.0769999,21.8698842 L35.1750701,21.2311093 L35.2731402,20.6412722 L35.3713948,20.1989866 L35.4204299,19.7567011 L35.469465,19.2652932 L35.5677195,18.6752714 L35.6167546,18.0366813 L35.6657897,17.5450887 L35.6657897,15.7757619 L35.7146405,15.3334764 L35.7146405,14.8911908 L35.5677195,13.5643342 L35.469465,13.1220487 L35.4204299,12.6795785 L35.126035,11.3525372 L34.9787453,10.9102517 L34.8806751,10.5172731 L34.7826049,10.0748029 L34.5864645,9.63251735 L34.2920696,9.04286486 L34.0957448,8.45302769 L33.7034641,7.56845662 L33.4581042,7.22441572 L33.2617795,6.8312525 L33.016604,6.43790461 L32.1334192,5.40596657 L31.8882437,5.06192567 L31.2996382,4.37384387 L30.9560238,4.07910996 L30.6616289,3.83349836 L30.3181988,3.48927279 L29.6313387,2.89943563 L29.239058,2.65382403 L28.8956279,2.45733476 L28.5029784,2.16241618 L28.1597328,1.96574223 L27.7180482,1.76925296 L27.276548,1.52345669 L26.982153,1.37608974 L26.5408371,1.13029347 L25.6576523,0.83537489 L24.7256168,0.638885616 L24.3821867,0.540640978 L23.7443618,0.393089352 L22.1252818,0.147293088 L21.8310712,0.0981707692 L21.2915008,0.0490484505 L20.1631405,0.0490484505 L19.5743506,-7.38681483e-05 Z M7.17252612,31.8465163 L6.78024533,31.650027 L6.38759586,31.4042307 L6.04416582,31.0601898 L5.79899033,30.6670266 L5.60248125,30.2738634 L5.50441105,29.8315779 L5.55363049,29.3892923 L5.70073579,28.9470068 L5.94609563,28.5045366 L6.24049056,28.2098027 L6.63277135,27.9148841 L7.02542083,27.7183948 L7.46692106,27.5708432 L7.90842129,27.5217209 L8.39914096,27.4725985 L9.03678159,27.5708432 L9.77267676,27.7183948 L10.5577914,28.0131287 L11.2935022,28.3571696 L11.833257,28.8485775 L11.8821077,29.4384146 L11.538862,30.0771895 L11.0971775,30.568782 L10.7539318,30.9128229 L10.3124315,31.3059861 L9.82171186,31.650027 L9.33117653,31.8465163 L8.74238666,31.9449456 L8.15378113,31.9449456 L7.17252612,31.8465163 Z" id="Fill-1" stroke="#000000"></path>
                <polygon id="Fill-2" stroke="#373B3E" points="36.1289318 11.8818025 35.6723154 10.5097016 35.6216213 10.0524578 35.6216213 9.59502927 35.723194 9.13778543 35.9259707 8.68035692 36.1798103 8.32468179 36.4841597 7.96900665 36.839019 7.66411587 37.2449411 7.46079379 37.7015574 7.35904042 38.1579894 7.35904042 38.6144214 7.46079379 39.0203435 7.71490022 39.3246929 8.019791 39.527654 8.42625049 39.6797365 8.88349433 39.6797365 10.2555952 39.5783482 10.763808 39.5783482 11.1704522 39.6797365 11.5769117 39.9335761 11.9325868 40.2884354 12.288262 40.6436634 12.5933374 40.9988913 12.9997969 41.5567116 13.6603628 41.9117553 13.9654383 42.5713326 14.6260042 42.9263762 15.0324637 43.129153 15.2865701 43.4843809 15.6932143 43.8396089 15.998105 44.1439583 16.3537802 44.6510845 17.1668838 44.803167 17.6241277 44.9554339 18.2339092 45.1077008 18.8946598 45.0570066 19.3519037 44.9047397 19.8093322 44.7017786 20.2157916 44.3974292 20.5716515 43.8901187 21.3845704 43.5857693 21.7402456 43.332114 22.1468897 43.0786431 22.5025649 42.7742937 22.909209 42.5204541 23.3156685 42.2161047 23.7223127 41.9626338 24.1287721 41.1002797 25.8565481 40.9480128 26.313792 40.7959302 26.7204361 40.6945419 27.1778646 40.5929692 27.6858928 40.4913965 28.1433213 40.4407023 28.6007498 40.4407023 29.108778 40.6436634 30.1252038 40.8973186 30.5316632 41.1509739 30.9890918 41.5060175 31.2939825 41.9117553 31.548089 42.4190658 31.6496577 43.3829926 31.6496577 43.8396089 31.548089 44.2960409 31.3955512 44.7526572 31.1924138 45.1077008 30.9383074 45.8684822 30.4300945 46.27422 30.1252038 46.6294479 29.820313 46.9337973 29.5154222 47.2381468 29.108778 48.1511951 28.0417526 48.9121608 26.8220048 49.1658161 26.4663297 49.419287 26.0090859 49.6731266 25.6024417 49.8759033 25.1957975 50.1297429 24.7385537 50.2818254 24.4336629 50.5861748 23.8746657 50.7889516 23.4680216 50.9412185 23.0615621 51.1441795 22.6551026 51.6007958 22.4009961 52.2601889 22.5535339 52.7166208 23.0615621 52.7166208 23.6205593 52.564354 24.0779878 52.1586162 24.9418758 51.9558394 25.3483353 51.7021842 25.7549794 51.2962621 26.5678984 50.7889516 27.381002 50.5354807 27.8384306 50.3325196 28.092537 50.0788643 28.5497808 49.5715538 29.3628845 48.962855 30.1759881 48.5571172 30.7349853 48.2020736 31.2431982 47.5933747 31.9545485 47.2381468 32.2594392 46.6294479 32.8692208 46.2237101 33.1741116 45.7670938 33.479187 44.9554339 33.8856465 44.4988176 34.0889686 44.0930798 34.292106 43.6366478 34.4446437 43.2307257 34.5462124 42.7234152 34.6479658 41.5567116 34.6479658 40.8973186 34.5969968 39.8826976 34.3938594 39.4769598 34.2413217 38.9696493 33.9872152 38.2086836 33.479187 37.8538243 33.1741116 37.5492905 32.8692208 37.2449411 32.4627613 36.9912859 32.1070862 36.7885091 31.6496577 36.5855481 31.2431982 36.4841597 30.7857697 36.382587 30.2777415 36.2811986 29.820313 36.2303201 29.3628845 36.2303201 28.9056406 36.4332812 27.0761113 36.5855481 26.6186828 36.7376306 26.2122233 36.9405917 25.7549794 37.1942469 25.1957975 37.4985964 24.636985 37.7522516 24.1795565 38.1072952 23.6205593 38.4623388 23.1123464 38.7159941 22.6551026 39.0203435 22.0961054 39.4262656 21.5371082 39.7306151 21.130464 40.1363529 20.4191137 40.6945419 19.6060101 40.9480128 19.0470129 41.1002797 18.2846936 40.9988913 17.674912 40.4913965 16.8618084 40.187047 16.4553489 39.3753871 15.5406765 39.0710377 15.1850014 38.6652999 14.8801106 38.2595621 14.9816793 38.056601 15.4389232 37.9552127 15.8963517 37.8029458 16.3537802 37.7015574 16.811024 37.5999847 17.2176682 37.4477178 17.674912 36.9912859 18.8946598 36.839019 19.3519037 36.6869364 19.7585478 36.5346696 20.2157916 36.2811986 20.8257579 36.0275434 21.3845704 35.8245823 21.8419989 35.5709271 22.4517805 35.3172718 23.0107777 35.0636166 23.5189906 34.8101457 24.0779878 34.5057963 24.636985 34.252141 25.0434445 33.9477916 25.2975509 33.4911753 25.2975509 33.0852531 25.0434445 32.7809037 24.6877694 32.8315979 24.2813099 32.9838648 23.8238814 33.1868258 23.3664528 33.3390927 22.9599934 33.4911753 22.5025649 33.8969131 21.5878925 34.0491799 21.2830017 34.252141 20.7747889 34.4549177 20.3683294 34.6071846 19.9109009 34.8101457 19.453657 34.9622282 18.9962285 35.1144951 18.5895844 35.5202329 17.674912 35.6216213 17.2176682 35.7737038 16.7602397 35.8752765 16.3029958 36.0780532 15.8455673 36.1798103 15.3881388 36.2811986 14.9816793 36.382587 14.5242508 36.5346696 14.067007 36.6362423 13.5587941 36.6362423 13.1013656 36.5346696 12.6949061"></polygon>
                <polygon id="Fill-3" stroke="#000000" points="75.1364635 24.9169822 75.0383933 25.1627785 74.7932178 25.6541863 74.5478579 25.9982272 74.3515332 26.3913905 74.1553928 26.833676 73.9590681 27.2268392 73.4685327 28.0131657 73.2231729 28.3572066 72.9779974 28.7503698 72.7816727 29.143533 72.5364972 29.5366962 72.2421022 29.8807371 71.9477073 30.2739003 71.6533124 30.6179412 71.1137419 31.306023 70.819347 31.6498793 70.5249521 31.9449825 69.1512319 33.1242875 68.7587668 33.3700838 68.3174509 33.61588 67.7776961 33.8616763 67.1890906 34.1072879 66.747406 34.2546549 66.3059058 34.3530842 65.8153705 34.3530842 65.2265806 34.3039618 64.6379751 34.1564102 64.1962905 34.0090433 63.8530448 33.763247 63.5096148 33.4685131 63.1660004 32.9769206 62.8227547 32.4363904 62.6754651 31.9941048 62.5283598 31.4042677 62.4793247 30.7653082 62.4793247 30.2739003 62.5283598 29.6349409 62.5773949 29.0452884 62.4302896 28.9470437 62.1849297 29.2910846 61.6943944 30.0772264 61.2038591 30.7653082 60.9094641 31.1093491 60.6641043 31.45339 60.3698937 31.7974309 60.1243495 32.1414718 59.7811038 32.4363904 59.4867089 32.7311243 59.1432789 33.0260429 58.8000332 33.2718391 58.4073837 33.5176354 57.8678133 33.8616763 57.1319181 34.2055325 56.3469878 34.4513288 55.7091629 34.5986958 54.8261624 34.6969404 54.3356271 34.6478181 53.7468372 34.5495734 53.1580473 34.4022065 52.7167314 34.2546549 52.324082 34.1072879 51.9808363 33.8616763 51.2939762 33.2718391 51.0486164 32.9277982 50.8032565 32.534635 50.5088616 31.9941048 50.214651 31.2569007 50.0675457 30.6179412 50.0183263 30.1263487 49.9202561 29.4875739 49.871221 28.7012475 49.871221 28.062288 49.9202561 27.5708801 49.9694755 26.9319206 50.0675457 26.3422681 50.214651 25.8508603 50.3617563 25.2610231 50.5088616 24.6220636 50.6561512 24.1797781 50.852476 23.7866149 50.9995813 23.3443293 52.1769767 20.98535 52.4221522 20.5921868 52.667512 20.2481459 52.9128718 19.8549827 53.4034072 19.1669009 53.6978021 18.82286 54.3356271 18.0856559 54.5319518 17.8891666 54.8751975 17.4958187 55.5618732 16.9061662 56.0035578 16.4638807 56.5433126 16.0707174 57.2299883 15.5300026 57.6224534 15.284391 57.9658835 15.0385947 58.4073837 14.8421055 58.9961736 14.5963092 59.535744 14.3013906 60.0262793 14.055779 60.6152535 13.8591051 61.2038591 13.7117381 61.6943944 13.5641865 62.9208249 13.4659419 63.3623251 13.4168195 63.951115 13.4168195 64.93237 13.4659419 66.0607303 13.5641865 67.1398712 13.7608604 67.5815557 13.8591051 68.1209418 14.006472 70.0834518 14.8912278 70.4268819 15.1861464 70.7701276 15.4317579 71.1137419 15.7266765 71.4079525 16.0707174 71.5062071 16.6112476 71.3098823 17.2993294 70.7701276 17.8891666 70.2307415 18.2332075 69.8382763 18.2823298 69.4456269 18.1347782 69.0531617 17.8400443 68.6116615 17.594248 68.2191964 17.3484517 67.8757663 17.2010848 67.4833012 17.0044108 67.041801 16.8079216 66.6493358 16.7096769 65.8153705 16.513003 65.3246508 16.365636 64.8341155 16.2673914 63.8530448 16.2673914 63.5096148 16.3165137 63.0190794 16.365636 62.3812545 16.513003 61.1546396 16.9552885 60.6641043 17.2010848 60.173569 17.4958187 59.8301389 17.7417996 59.4376738 17.9874112 59.0944281 18.2332075 58.7508137 18.5279414 58.3583486 18.8719823 58.1622082 19.0686562 57.8187782 19.4618195 57.5243832 19.8058604 57.2792077 20.1499013 56.6904179 20.8377984 56.445058 21.1818393 56.1996982 21.5750025 55.6110927 22.7546768 55.3657328 23.1476554 55.0713379 24.0324111 54.8751975 24.4746967 54.6788728 24.8678599 54.3846622 26.1947165 54.2375569 26.686309 54.0902672 28.0131657 54.0902672 29.3893293 54.1394867 29.8807371 54.286592 30.3230227 54.4827324 30.7161859 54.7280922 31.1093491 55.0224871 31.4042677 55.463803 31.600757 56.0527773 31.6991863 56.6904179 31.6498793 57.1319181 31.5025123 57.9168484 31.1093491 58.6035241 30.5196966 58.8981034 30.224778 59.2413491 29.9298594 59.535744 29.5858185 59.7811038 29.2417776 60.0754988 28.8979214 60.3206743 28.5536958 60.860429 27.8166764 61.1057889 27.4726355 61.8414997 26.2931458 62.136079 25.752431 62.4793247 25.1134715 62.6754651 24.8187376 63.2642549 23.5408186 63.4603953 23.0985331 63.5586499 22.7546768 63.7549746 22.3122066 63.9020799 21.9190434 64.0491852 21.4767579 64.2455099 20.9362277 64.5399049 19.9532273 64.7360453 19.4126971 64.8831506 18.9211046 65.1777298 18.4788191 65.6682652 18.2332075 66.1095811 18.1347782 66.5512656 18.1840852 66.9927659 18.2823298 67.7776961 18.675493 68.1701613 18.9211046 68.3663017 19.2160232 68.4155211 19.6583087 68.2682315 20.051472 68.1701613 20.4937575 68.0228716 20.9362277 67.8267312 21.8207988 67.6796259 22.2630843 67.5815557 22.6562475 67.2871608 23.5408186 67.1890906 24.0324111 67.1398712 24.3273297 66.9927659 24.9169822 66.8946957 25.3592678 66.6985553 26.1947165 66.5512656 26.7845537 66.4531954 27.2759615 66.3549409 27.8166764 66.2076513 28.5536958 66.0607303 29.3893293 66.0115109 30.1263487 66.0607303 30.7653082 66.3059058 31.1584714 66.7966255 31.4042677 67.5323363 31.45339 68.1209418 31.2569007 68.5626264 31.0111045 69.2493021 30.5196966 69.5929165 30.1756557 70.181522 29.5366962 70.7701276 28.8487991 71.2608472 28.1605326 71.5062071 27.7675541 71.8004177 27.3743908 71.8986722 27.0792876 72.6834181 25.8999826 72.8797429 25.5066347 73.1251027 25.1134715 74.1061734 23.1476554 74.5478579 22.9020438 75.1364635 23.0002884 75.5289286 23.4916963 75.578148 23.9831041 75.3818233 24.4255744"></polygon>
                <polygon id="Fill-4" stroke="#000000" points="78.1285078 13.7608974 77.6379724 13.859142 77.245323 14.0558159 76.9511124 14.3505499 76.7057525 14.7438978 76.1659978 16.3656729 75.969673 16.8079585 75.8227521 17.200937 75.6754624 17.6434072 75.5283571 18.2330597 75.3322167 18.8227122 75.135892 19.2651824 74.8905322 20.1006312 74.498067 21.2803055 74.3507774 21.7715287 74.2038564 22.3613659 73.8604264 23.3933039 73.6641017 24.2780597 73.3697067 25.4575493 72.9772416 27.2268762 72.9280222 27.6200394 72.7318818 28.5046104 72.6338116 29.3893662 72.6338116 29.8316517 72.5847765 30.2739373 72.5847765 30.7162228 72.6338116 31.2078153 72.7318818 31.6501009 72.8301363 32.0432641 73.0262767 32.4855496 73.2714522 32.8785282 73.8604264 33.56661 74.2038564 33.8124063 74.5471021 34.1073248 74.9886024 34.3039988 75.3810675 34.4513657 75.8227521 34.5496104 76.2642523 34.5987327 76.7547876 34.647855 77.1962879 34.647855 77.6379724 34.5987327 78.0302532 34.5004881 78.4719378 34.4513657 79.3057188 34.2055695 79.7474034 34.0582025 80.1398685 33.9106509 80.5813688 33.7632839 80.9247988 33.5176723 81.3172639 33.2718761 81.660694 33.0260798 82.0529748 32.7802835 82.3964048 32.5344873 82.7400192 32.2397534 83.0834492 31.9941418 83.6720547 31.30606 84.0154848 30.9127121 84.1625901 30.7162228 84.5060201 30.2739373 84.7513799 29.9298964 84.9965554 29.6841001 85.0457749 29.6841001 85.0946256 30.028141 85.0946256 30.6671005 85.2419153 31.4534269 85.43824 32.1906311 85.6345647 32.8295905 85.8795559 33.2718761 86.2231703 33.7141616 86.6646705 34.1073248 87.1061707 34.3039988 87.7438114 34.5004881 88.4798909 34.647855 89.1177158 34.6969773 89.6082512 34.6969773 90.0987865 34.5987327 90.687392 34.5004881 91.2761819 34.3529364 91.7667172 34.1564472 92.2084018 34.0088955 92.6006826 33.8124063 93.0423672 33.6650393 93.4838674 33.419243 93.8763325 33.2225691 94.2195782 33.0260798 94.6122277 32.7802835 95.0045085 32.5837943 95.397158 32.2888757 95.7404037 32.0432641 96.378413 31.4041199 96.7216587 31.109386 97.1141238 31.060079 97.5067733 31.109386 97.9480892 31.256753 98.3405543 31.3551823 99.9105992 31.3551823 100.499205 31.30606 100.940889 31.256753 101.382205 31.1585083 102.60882 30.6179782 103.14839 30.3230596 103.63911 29.9790187 104.031391 29.6841001 104.374821 29.4383038 104.963611 28.750222 105.208786 28.4554881 105.797761 27.767591 106.042752 27.4235501 106.337331 27.0302022 106.631726 26.4894874 106.974972 25.9982642 107.171296 25.555794 107.759902 24.376489 107.907007 23.9831411 107.907007 23.4426109 107.563577 22.9512031 106.925936 22.9020807 106.533471 23.1476923 106.239076 23.4917332 106.042752 23.8848964 105.846611 24.327182 105.552216 24.8677122 105.258006 25.3593047 105.01283 25.7524679 104.718251 26.1456311 104.423856 26.4894874 104.08061 26.9810799 103.688145 27.4235501 103.29568 27.767591 102.85418 28.1605695 102.46153 28.4554881 101.578714 28.9470807 101.13703 29.0453253 100.30288 29.2909369 99.8613797 29.3400592 99.4200638 29.3400592 98.9293442 29.2418146 98.6839843 28.9960183 98.831274 28.7012844 99.1256689 28.3572435 99.3708444 28.0132026 99.6652393 27.6200394 99.9105992 27.2759985 100.401134 26.4894874 100.597275 26.1456311 100.7936 25.7524679 101.038959 25.2117531 101.13703 24.9170192 101.578714 24.0324481 101.725635 23.5899779 101.92196 23.1969993 102.216171 22.3122436 102.314425 21.869958 102.46153 21.4767948 102.755925 20.5922237 102.85418 20.1497535 103.001101 19.7565903 103.099355 19.3143048 103.19761 18.8227122 103.29568 18.3804267 103.39375 17.4960403 103.442785 17.0044478 103.540856 16.1198767 103.540856 15.1859986 103.344531 14.6454684 102.85418 14.1538759 102.16732 13.9082643 101.382205 13.859142 100.597275 13.9573866 100.008669 14.2521206 99.7142744 14.6945908 99.6162042 15.5791618 99.6162042 16.0705697 99.5669848 16.6604069 99.4689146 17.2993663 99.3708444 17.7907742 99.2237391 18.4297337 99.1256689 19.0193862 99.0274144 19.4618564 98.8803091 19.9041419 98.7820545 20.3464275 98.5859141 20.985387 98.4386245 21.5750394 98.0953788 22.6071621 97.9480892 23.245937 97.7519488 23.6884072 97.555624 24.0815704 97.3594836 24.5238559 97.0650887 25.0643861 96.8197289 25.605101 96.3291935 26.3914274 96.0838337 26.6861613 95.7896231 26.7354683 95.3481229 26.6861613 94.7595173 26.6372237 94.2195782 26.7845906 93.8272974 27.0795092 93.5329025 27.5709171 93.3856129 28.1605695 93.4838674 28.6519774 93.6798235 29.1926923 93.7292272 29.6841001 93.5329025 30.0772633 93.1894725 30.3721819 92.7970073 30.6179782 92.4045422 30.9127121 92.0120771 31.109386 91.5705768 31.30606 90.687392 31.6007939 90.2458918 31.6990385 89.7553565 31.6990385 89.3628913 31.5516716 88.9704262 31.30606 88.6760313 30.9620191 88.5287416 30.5197335 88.4798909 30.0772633 88.4798909 29.6349778 88.5287416 29.1435699 88.6760313 27.8165286 88.7250664 27.3253055 89.0196456 26.1456311 89.1177158 25.7033456 89.2648211 25.2610601 89.3628913 24.8187745 89.510181 24.179815 89.6571019 23.3933039 89.8534267 22.7547138 90.0007163 22.3122436 90.2458918 21.6732841 90.4912516 20.9362646 90.6385413 20.2971205 90.8346817 19.8548349 90.981787 19.2651824 91.1779274 18.6753453 91.3742521 18.2330597 91.5213574 17.8400812 91.7176821 17.397611 91.8649718 16.8079585 92.2084018 15.7758358 92.3556914 15.3826726 92.5026124 14.940387 92.5026124 14.5472238 92.2574369 14.2031829 91.8649718 13.9573866 91.4234715 13.859142 90.9327519 13.809835 90.4912516 13.859142 90.0007163 13.9082643 89.5590317 14.006509 89.1177158 14.1538759 88.8231366 14.4487945 88.6269962 14.8419577 88.4798909 15.2353056 88.2835661 15.7758358 88.1854959 16.021632 87.9891712 16.5621622 87.8420659 16.9553254 87.4003813 18.2823667 87.3024955 18.7244676 87.1552058 19.1667531 87.0081005 19.560101 86.8117758 20.0023866 86.7137056 20.4446721 86.5666003 20.8869576 86.4685301 21.2803055 86.3212405 21.7225911 86.1249157 22.1648766 85.9779948 22.6071621 85.8795559 23.0494477 85.3892049 24.5238559 85.1438451 25.0643861 84.9477047 25.555794 84.6533097 26.0965088 83.8681951 27.5709171 83.5249494 28.1116319 83.2307388 28.5046104 82.8380894 28.9470807 82.4456242 29.4383038 82.1512293 29.7823447 81.8568344 30.0772633 81.4643692 30.3721819 80.9738339 30.7653451 80.2871582 31.1585083 79.5020436 31.5025493 78.7171133 31.6501009 78.0794727 31.6990385 77.6379724 31.5516716 77.2943581 31.3551823 77.0493669 31.0111414 76.8530422 30.6179782 76.7547876 30.1756926 76.7057525 29.7334071 76.7057525 29.2909369 76.8530422 27.9638956 77.0493669 27.0795092 77.0982177 26.6861613 77.1962879 26.2438758 77.2943581 25.7524679 77.588753 24.5729782 77.6868232 24.1306927 77.9812181 23.2950593 78.0794727 22.8529584 78.1775429 22.4596105 78.3246482 22.017325 78.4229027 21.5750394 78.570008 21.1818762 78.6682625 20.7395907 79.1095784 19.560101 79.2568681 19.0686932 79.7966228 17.4467333 79.894693 17.0535701 80.0417983 16.6112845 80.1889036 16.2181213 80.3360089 15.7758358 80.4832986 15.3826726 80.5813688 14.940387 80.6304039 14.5472238 80.3852284 14.2031829 79.9435438 14.006509 79.5020436 13.859142 79.0605433 13.809835 78.570008 13.7608974"></polygon>
            </g>
        </g>
    </g>
</svg>